<mxfile host="app.diagrams.net" modified="2023-12-15T02:25:57.495Z" agent="Mozilla/5.0 (Windows NT 10.0; Win64; x64) AppleWebKit/537.36 (KHTML, like Gecko) Chrome/120.0.0.0 Safari/537.36" etag="Z2ebpKEjuTsPZWBI30FI" version="22.1.9" type="google" pages="2">
  <diagram id="kDqYqblyWoqguwbVUTKb" name="ERD-update">
    <mxGraphModel dx="7684" dy="3644" grid="1" gridSize="10" guides="1" tooltips="1" connect="1" arrows="1" fold="1" page="1" pageScale="1" pageWidth="827" pageHeight="1169" math="0" shadow="0">
      <root>
        <mxCell id="0" />
        <mxCell id="1" parent="0" />
        <mxCell id="9i-a_sATo2-7fXYlKeiW-1" value="Book" style="whiteSpace=wrap;html=1;align=center;fontSize=30;fontStyle=1" parent="1" vertex="1">
          <mxGeometry x="-653" y="-560" width="115" height="52" as="geometry" />
        </mxCell>
        <mxCell id="9i-a_sATo2-7fXYlKeiW-2" value="ID" style="ellipse;whiteSpace=wrap;html=1;align=center;fontStyle=5;fontSize=30;" parent="1" vertex="1">
          <mxGeometry x="-813" y="-720" width="100" height="40" as="geometry" />
        </mxCell>
        <mxCell id="9i-a_sATo2-7fXYlKeiW-3" value="ISBN" style="ellipse;whiteSpace=wrap;html=1;align=center;fontSize=30;" parent="1" vertex="1">
          <mxGeometry x="-618" y="-760" width="100" height="40" as="geometry" />
        </mxCell>
        <mxCell id="9i-a_sATo2-7fXYlKeiW-4" value="Name" style="ellipse;whiteSpace=wrap;html=1;align=center;fontSize=30;" parent="1" vertex="1">
          <mxGeometry x="-690" y="-714" width="100" height="40" as="geometry" />
        </mxCell>
        <mxCell id="9i-a_sATo2-7fXYlKeiW-5" value="Publisher" style="whiteSpace=wrap;html=1;align=center;fontSize=30;fontStyle=1" parent="1" vertex="1">
          <mxGeometry x="-190" y="-396.5" width="142" height="61" as="geometry" />
        </mxCell>
        <mxCell id="9i-a_sATo2-7fXYlKeiW-6" value="Category" style="whiteSpace=wrap;html=1;align=center;fontSize=30;fontStyle=1" parent="1" vertex="1">
          <mxGeometry x="136" y="-624" width="139" height="64" as="geometry" />
        </mxCell>
        <mxCell id="9i-a_sATo2-7fXYlKeiW-7" value="ID" style="ellipse;whiteSpace=wrap;html=1;align=center;fontStyle=5;fontSize=30;" parent="1" vertex="1">
          <mxGeometry x="-29.999999999999886" y="-280" width="100" height="40" as="geometry" />
        </mxCell>
        <mxCell id="9i-a_sATo2-7fXYlKeiW-8" value="Name" style="ellipse;whiteSpace=wrap;html=1;align=center;fontSize=30;" parent="1" vertex="1">
          <mxGeometry x="60.000000000000114" y="-223" width="100" height="40" as="geometry" />
        </mxCell>
        <mxCell id="9i-a_sATo2-7fXYlKeiW-9" value="Name" style="ellipse;whiteSpace=wrap;html=1;align=center;fontStyle=5;fontSize=30;" parent="1" vertex="1">
          <mxGeometry x="364" y="-690.25" width="100" height="59" as="geometry" />
        </mxCell>
        <mxCell id="9i-a_sATo2-7fXYlKeiW-10" value="Name" style="ellipse;whiteSpace=wrap;html=1;align=center;fontStyle=5;fontSize=30;" parent="1" vertex="1">
          <mxGeometry x="-70" y="-500" width="105" height="50" as="geometry" />
        </mxCell>
        <mxCell id="9i-a_sATo2-7fXYlKeiW-11" value="Author" style="whiteSpace=wrap;html=1;align=center;fontSize=30;fontStyle=1" parent="1" vertex="1">
          <mxGeometry x="-190" y="-145" width="137" height="46" as="geometry" />
        </mxCell>
        <mxCell id="9i-a_sATo2-7fXYlKeiW-12" value="Publish" style="shape=rhombus;perimeter=rhombusPerimeter;whiteSpace=wrap;html=1;align=center;fontSize=30;" parent="1" vertex="1">
          <mxGeometry x="-368" y="-304" width="144" height="70" as="geometry" />
        </mxCell>
        <mxCell id="9i-a_sATo2-7fXYlKeiW-13" value="Write" style="shape=rhombus;perimeter=rhombusPerimeter;whiteSpace=wrap;html=1;align=center;fontSize=30;" parent="1" vertex="1">
          <mxGeometry x="-404" y="-162" width="120" height="60" as="geometry" />
        </mxCell>
        <mxCell id="9i-a_sATo2-7fXYlKeiW-14" value="Belong" style="shape=rhombus;perimeter=rhombusPerimeter;whiteSpace=wrap;html=1;align=center;fontSize=30;" parent="1" vertex="1">
          <mxGeometry x="-150" y="-610" width="160" height="70" as="geometry" />
        </mxCell>
        <mxCell id="9i-a_sATo2-7fXYlKeiW-15" value="" style="endArrow=none;html=1;rounded=0;fontSize=30;" parent="1" source="9i-a_sATo2-7fXYlKeiW-11" target="9i-a_sATo2-7fXYlKeiW-13" edge="1">
          <mxGeometry relative="1" as="geometry">
            <mxPoint x="173.64999999999998" y="-32" as="sourcePoint" />
            <mxPoint x="333.65000000000003" y="-32" as="targetPoint" />
          </mxGeometry>
        </mxCell>
        <mxCell id="9i-a_sATo2-7fXYlKeiW-16" value="N" style="resizable=0;html=1;whiteSpace=wrap;align=right;verticalAlign=bottom;fontSize=30;" parent="9i-a_sATo2-7fXYlKeiW-15" connectable="0" vertex="1">
          <mxGeometry x="1" relative="1" as="geometry">
            <mxPoint x="51" as="offset" />
          </mxGeometry>
        </mxCell>
        <mxCell id="9i-a_sATo2-7fXYlKeiW-17" value="" style="endArrow=none;html=1;rounded=0;fontSize=30;" parent="1" source="9i-a_sATo2-7fXYlKeiW-6" target="9i-a_sATo2-7fXYlKeiW-14" edge="1">
          <mxGeometry relative="1" as="geometry">
            <mxPoint x="3.6499999999999915" y="-119" as="sourcePoint" />
            <mxPoint x="193.64999999999998" y="-72" as="targetPoint" />
          </mxGeometry>
        </mxCell>
        <mxCell id="9i-a_sATo2-7fXYlKeiW-18" value="N" style="resizable=0;html=1;whiteSpace=wrap;align=right;verticalAlign=bottom;fontSize=30;" parent="9i-a_sATo2-7fXYlKeiW-17" connectable="0" vertex="1">
          <mxGeometry x="1" relative="1" as="geometry">
            <mxPoint x="54" y="6" as="offset" />
          </mxGeometry>
        </mxCell>
        <mxCell id="9i-a_sATo2-7fXYlKeiW-19" value="" style="endArrow=none;html=1;rounded=0;fontSize=30;" parent="1" source="9i-a_sATo2-7fXYlKeiW-2" target="9i-a_sATo2-7fXYlKeiW-1" edge="1">
          <mxGeometry relative="1" as="geometry">
            <mxPoint x="-249.78546332908854" y="-349.8062912752748" as="sourcePoint" />
            <mxPoint x="257.7" y="-185" as="targetPoint" />
          </mxGeometry>
        </mxCell>
        <mxCell id="9i-a_sATo2-7fXYlKeiW-20" value="" style="endArrow=none;html=1;rounded=0;fontSize=30;" parent="1" source="9i-a_sATo2-7fXYlKeiW-3" target="9i-a_sATo2-7fXYlKeiW-1" edge="1">
          <mxGeometry relative="1" as="geometry">
            <mxPoint x="-187.3" y="-366" as="sourcePoint" />
            <mxPoint x="-138.3" y="-305" as="targetPoint" />
          </mxGeometry>
        </mxCell>
        <mxCell id="9i-a_sATo2-7fXYlKeiW-21" value="" style="endArrow=none;html=1;rounded=0;fontSize=30;" parent="1" source="9i-a_sATo2-7fXYlKeiW-4" target="9i-a_sATo2-7fXYlKeiW-1" edge="1">
          <mxGeometry relative="1" as="geometry">
            <mxPoint x="-131.3" y="-415" as="sourcePoint" />
            <mxPoint x="-123.3" y="-305" as="targetPoint" />
          </mxGeometry>
        </mxCell>
        <mxCell id="9i-a_sATo2-7fXYlKeiW-22" value="" style="endArrow=none;html=1;rounded=0;fontSize=30;" parent="1" source="9i-a_sATo2-7fXYlKeiW-7" target="9i-a_sATo2-7fXYlKeiW-11" edge="1">
          <mxGeometry relative="1" as="geometry">
            <mxPoint x="41.64999999999999" y="-273" as="sourcePoint" />
            <mxPoint x="-33.35000000000001" y="-152" as="targetPoint" />
          </mxGeometry>
        </mxCell>
        <mxCell id="9i-a_sATo2-7fXYlKeiW-23" value="" style="endArrow=none;html=1;rounded=0;fontSize=30;" parent="1" source="9i-a_sATo2-7fXYlKeiW-8" target="9i-a_sATo2-7fXYlKeiW-11" edge="1">
          <mxGeometry relative="1" as="geometry">
            <mxPoint x="506.2710134405589" y="-248.71655849540525" as="sourcePoint" />
            <mxPoint x="423.6500000000001" y="-222" as="targetPoint" />
          </mxGeometry>
        </mxCell>
        <mxCell id="9i-a_sATo2-7fXYlKeiW-24" value="" style="endArrow=none;html=1;rounded=0;fontSize=30;" parent="1" source="9i-a_sATo2-7fXYlKeiW-9" target="9i-a_sATo2-7fXYlKeiW-6" edge="1">
          <mxGeometry relative="1" as="geometry">
            <mxPoint x="456.6500000000001" y="-112" as="sourcePoint" />
            <mxPoint x="403.6500000000001" y="-93" as="targetPoint" />
          </mxGeometry>
        </mxCell>
        <mxCell id="9i-a_sATo2-7fXYlKeiW-25" value="1" style="endArrow=none;html=1;rounded=0;fontSize=30;" parent="1" source="9i-a_sATo2-7fXYlKeiW-5" target="9i-a_sATo2-7fXYlKeiW-12" edge="1">
          <mxGeometry x="0.6449" y="-20" relative="1" as="geometry">
            <mxPoint x="809.6500000000001" y="-335" as="sourcePoint" />
            <mxPoint x="217.3423076923076" y="-312.1538461538462" as="targetPoint" />
            <mxPoint as="offset" />
          </mxGeometry>
        </mxCell>
        <mxCell id="9i-a_sATo2-7fXYlKeiW-26" value="" style="endArrow=none;html=1;rounded=0;fontSize=30;" parent="1" source="9i-a_sATo2-7fXYlKeiW-5" target="9i-a_sATo2-7fXYlKeiW-10" edge="1">
          <mxGeometry relative="1" as="geometry">
            <mxPoint x="524.6500000000001" y="-516" as="sourcePoint" />
            <mxPoint x="573.6500000000001" y="-455" as="targetPoint" />
          </mxGeometry>
        </mxCell>
        <mxCell id="9i-a_sATo2-7fXYlKeiW-27" value="Date" style="ellipse;whiteSpace=wrap;html=1;align=center;fontSize=30;" parent="1" vertex="1">
          <mxGeometry x="-394" y="-386" width="100" height="40" as="geometry" />
        </mxCell>
        <mxCell id="9i-a_sATo2-7fXYlKeiW-28" value="" style="endArrow=none;html=1;rounded=0;fontSize=30;" parent="1" source="9i-a_sATo2-7fXYlKeiW-27" target="9i-a_sATo2-7fXYlKeiW-12" edge="1">
          <mxGeometry relative="1" as="geometry">
            <mxPoint x="524.6500000000001" y="-516" as="sourcePoint" />
            <mxPoint x="178.2565573770488" y="-331.69672131147536" as="targetPoint" />
          </mxGeometry>
        </mxCell>
        <mxCell id="9i-a_sATo2-7fXYlKeiW-29" value="Customer" style="whiteSpace=wrap;html=1;align=center;fontSize=30;fontStyle=1" parent="1" vertex="1">
          <mxGeometry x="-1076" y="628" width="167" height="71" as="geometry" />
        </mxCell>
        <mxCell id="9i-a_sATo2-7fXYlKeiW-30" value="ID" style="ellipse;whiteSpace=wrap;html=1;align=center;fontStyle=5;fontSize=30;" parent="1" vertex="1">
          <mxGeometry x="-1247" y="649" width="130" height="56" as="geometry" />
        </mxCell>
        <mxCell id="9i-a_sATo2-7fXYlKeiW-31" value="Name" style="ellipse;whiteSpace=wrap;html=1;align=center;fontSize=30;" parent="1" vertex="1">
          <mxGeometry x="-1223" y="771.5" width="118" height="50" as="geometry" />
        </mxCell>
        <mxCell id="9i-a_sATo2-7fXYlKeiW-32" value="Date of birth" style="ellipse;whiteSpace=wrap;html=1;align=center;fontSize=30;" parent="1" vertex="1">
          <mxGeometry x="-792" y="715" width="174" height="65" as="geometry" />
        </mxCell>
        <mxCell id="9i-a_sATo2-7fXYlKeiW-33" value="Address" style="ellipse;whiteSpace=wrap;html=1;align=center;fontSize=30;" parent="1" vertex="1">
          <mxGeometry x="-932" y="790" width="129" height="63" as="geometry" />
        </mxCell>
        <mxCell id="9i-a_sATo2-7fXYlKeiW-34" value="" style="endArrow=none;html=1;rounded=0;fontSize=30;" parent="1" source="9i-a_sATo2-7fXYlKeiW-29" target="9i-a_sATo2-7fXYlKeiW-30" edge="1">
          <mxGeometry relative="1" as="geometry">
            <mxPoint x="-605" y="207" as="sourcePoint" />
            <mxPoint x="-659" y="232" as="targetPoint" />
          </mxGeometry>
        </mxCell>
        <mxCell id="9i-a_sATo2-7fXYlKeiW-35" value="" style="endArrow=none;html=1;rounded=0;fontSize=30;" parent="1" source="9i-a_sATo2-7fXYlKeiW-29" target="9i-a_sATo2-7fXYlKeiW-31" edge="1">
          <mxGeometry relative="1" as="geometry">
            <mxPoint x="-190" y="397" as="sourcePoint" />
            <mxPoint x="-227" y="413" as="targetPoint" />
          </mxGeometry>
        </mxCell>
        <mxCell id="9i-a_sATo2-7fXYlKeiW-36" value="" style="endArrow=none;html=1;rounded=0;fontSize=30;" parent="1" source="9i-a_sATo2-7fXYlKeiW-29" target="9i-a_sATo2-7fXYlKeiW-32" edge="1">
          <mxGeometry relative="1" as="geometry">
            <mxPoint x="-158" y="397" as="sourcePoint" />
            <mxPoint x="-216" y="468" as="targetPoint" />
          </mxGeometry>
        </mxCell>
        <mxCell id="9i-a_sATo2-7fXYlKeiW-37" value="" style="endArrow=none;html=1;rounded=0;fontSize=30;" parent="1" source="9i-a_sATo2-7fXYlKeiW-29" target="9i-a_sATo2-7fXYlKeiW-33" edge="1">
          <mxGeometry relative="1" as="geometry">
            <mxPoint x="-139" y="397" as="sourcePoint" />
            <mxPoint x="-134" y="437" as="targetPoint" />
          </mxGeometry>
        </mxCell>
        <mxCell id="9i-a_sATo2-7fXYlKeiW-38" value="Email" style="ellipse;whiteSpace=wrap;html=1;align=center;fontSize=30;" parent="1" vertex="1">
          <mxGeometry x="-1250" y="714.5" width="124" height="48" as="geometry" />
        </mxCell>
        <mxCell id="9i-a_sATo2-7fXYlKeiW-39" value="Phone" style="ellipse;whiteSpace=wrap;html=1;align=center;fontSize=30;" parent="1" vertex="1">
          <mxGeometry x="-1088.5" y="800" width="112" height="56" as="geometry" />
        </mxCell>
        <mxCell id="9i-a_sATo2-7fXYlKeiW-40" value="Username" style="ellipse;whiteSpace=wrap;html=1;align=center;fontSize=30;" parent="1" vertex="1">
          <mxGeometry x="-1276" y="540" width="150" height="70" as="geometry" />
        </mxCell>
        <mxCell id="9i-a_sATo2-7fXYlKeiW-41" value="Password" style="ellipse;whiteSpace=wrap;html=1;align=center;fontSize=30;" parent="1" vertex="1">
          <mxGeometry x="-792" y="819" width="160" height="43" as="geometry" />
        </mxCell>
        <mxCell id="9i-a_sATo2-7fXYlKeiW-42" value="" style="endArrow=none;html=1;rounded=0;fontSize=30;" parent="1" source="9i-a_sATo2-7fXYlKeiW-29" target="9i-a_sATo2-7fXYlKeiW-38" edge="1">
          <mxGeometry relative="1" as="geometry">
            <mxPoint x="-115.60000000000002" y="347" as="sourcePoint" />
            <mxPoint x="-68.39999999999998" y="427" as="targetPoint" />
          </mxGeometry>
        </mxCell>
        <mxCell id="9i-a_sATo2-7fXYlKeiW-43" value="" style="endArrow=none;html=1;rounded=0;fontSize=30;" parent="1" source="9i-a_sATo2-7fXYlKeiW-29" target="9i-a_sATo2-7fXYlKeiW-39" edge="1">
          <mxGeometry relative="1" as="geometry">
            <mxPoint x="-105" y="397" as="sourcePoint" />
            <mxPoint x="-62" y="421" as="targetPoint" />
          </mxGeometry>
        </mxCell>
        <mxCell id="9i-a_sATo2-7fXYlKeiW-44" value="" style="endArrow=none;html=1;rounded=0;fontSize=30;" parent="1" source="9i-a_sATo2-7fXYlKeiW-29" target="9i-a_sATo2-7fXYlKeiW-40" edge="1">
          <mxGeometry relative="1" as="geometry">
            <mxPoint x="-92" y="381" as="sourcePoint" />
            <mxPoint x="-51" y="384" as="targetPoint" />
          </mxGeometry>
        </mxCell>
        <mxCell id="9i-a_sATo2-7fXYlKeiW-45" value="" style="endArrow=none;html=1;rounded=0;fontSize=30;" parent="1" source="9i-a_sATo2-7fXYlKeiW-29" target="9i-a_sATo2-7fXYlKeiW-41" edge="1">
          <mxGeometry relative="1" as="geometry">
            <mxPoint x="-92" y="364" as="sourcePoint" />
            <mxPoint x="-34" y="348" as="targetPoint" />
          </mxGeometry>
        </mxCell>
        <mxCell id="9i-a_sATo2-7fXYlKeiW-46" value="File path" style="ellipse;whiteSpace=wrap;html=1;align=center;fontSize=30;" parent="1" vertex="1">
          <mxGeometry x="-1274.5" y="-560" width="128" height="52" as="geometry" />
        </mxCell>
        <mxCell id="9i-a_sATo2-7fXYlKeiW-47" value="" style="endArrow=none;html=1;rounded=0;fontSize=30;" parent="1" source="9i-a_sATo2-7fXYlKeiW-46" target="9i-a_sATo2-7fXYlKeiW-83" edge="1">
          <mxGeometry relative="1" as="geometry">
            <mxPoint x="157" y="-413" as="sourcePoint" />
            <mxPoint x="151" y="-343" as="targetPoint" />
          </mxGeometry>
        </mxCell>
        <mxCell id="9i-a_sATo2-7fXYlKeiW-48" value="&lt;font style=&quot;font-size: 30px;&quot;&gt;Time&lt;/font&gt;" style="ellipse;whiteSpace=wrap;html=1;align=center;fontSize=30;" parent="1" vertex="1">
          <mxGeometry x="-1624.5" y="390" width="111" height="48" as="geometry" />
        </mxCell>
        <mxCell id="9i-a_sATo2-7fXYlKeiW-49" value="Price" style="ellipse;whiteSpace=wrap;html=1;align=center;fontSize=30;" parent="1" vertex="1">
          <mxGeometry x="-440" y="-620" width="100" height="40" as="geometry" />
        </mxCell>
        <mxCell id="9i-a_sATo2-7fXYlKeiW-50" value="" style="endArrow=none;html=1;rounded=0;fontSize=30;" parent="1" source="9i-a_sATo2-7fXYlKeiW-49" target="9i-a_sATo2-7fXYlKeiW-1" edge="1">
          <mxGeometry relative="1" as="geometry">
            <mxPoint x="-39.3" y="-338" as="sourcePoint" />
            <mxPoint x="-91.30000000000001" y="-305" as="targetPoint" />
          </mxGeometry>
        </mxCell>
        <mxCell id="9i-a_sATo2-7fXYlKeiW-51" value="" style="endArrow=none;html=1;rounded=0;fontSize=30;" parent="1" source="9i-a_sATo2-7fXYlKeiW-107" target="9i-a_sATo2-7fXYlKeiW-48" edge="1">
          <mxGeometry relative="1" as="geometry">
            <mxPoint x="-236.62530025979504" y="333.7536441640309" as="sourcePoint" />
            <mxPoint x="-467" y="249" as="targetPoint" />
          </mxGeometry>
        </mxCell>
        <mxCell id="9i-a_sATo2-7fXYlKeiW-52" value="Rating" style="shape=rhombus;perimeter=rhombusPerimeter;whiteSpace=wrap;html=1;align=center;fontSize=30;" parent="1" vertex="1">
          <mxGeometry x="-792" y="120" width="146" height="63" as="geometry" />
        </mxCell>
        <mxCell id="9i-a_sATo2-7fXYlKeiW-53" value="Comment" style="shape=rhombus;perimeter=rhombusPerimeter;whiteSpace=wrap;html=1;align=center;fontSize=30;" parent="1" vertex="1">
          <mxGeometry x="-350" y="133.5" width="160" height="89" as="geometry" />
        </mxCell>
        <mxCell id="9i-a_sATo2-7fXYlKeiW-54" value="N" style="endArrow=none;html=1;rounded=0;fontSize=30;" parent="1" source="9i-a_sATo2-7fXYlKeiW-52" target="9i-a_sATo2-7fXYlKeiW-29" edge="1">
          <mxGeometry x="-0.8657" y="27" relative="1" as="geometry">
            <mxPoint x="-278" y="90" as="sourcePoint" />
            <mxPoint x="63" y="218" as="targetPoint" />
            <mxPoint as="offset" />
          </mxGeometry>
        </mxCell>
        <mxCell id="9i-a_sATo2-7fXYlKeiW-55" value="N" style="endArrow=none;html=1;rounded=0;fontSize=30;" parent="1" source="9i-a_sATo2-7fXYlKeiW-52" target="9i-a_sATo2-7fXYlKeiW-88" edge="1">
          <mxGeometry x="-0.8635" y="24" relative="1" as="geometry">
            <mxPoint x="-116" y="17" as="sourcePoint" />
            <mxPoint x="-311" y="-166" as="targetPoint" />
            <mxPoint as="offset" />
          </mxGeometry>
        </mxCell>
        <mxCell id="9i-a_sATo2-7fXYlKeiW-56" value="N" style="endArrow=none;html=1;rounded=0;fontSize=30;" parent="1" source="9i-a_sATo2-7fXYlKeiW-53" target="9i-a_sATo2-7fXYlKeiW-29" edge="1">
          <mxGeometry x="-0.9245" y="23" relative="1" as="geometry">
            <mxPoint x="-116" y="17" as="sourcePoint" />
            <mxPoint x="92" y="217" as="targetPoint" />
            <mxPoint as="offset" />
          </mxGeometry>
        </mxCell>
        <mxCell id="9i-a_sATo2-7fXYlKeiW-57" value="N" style="endArrow=none;html=1;rounded=0;fontSize=30;" parent="1" source="9i-a_sATo2-7fXYlKeiW-53" target="9i-a_sATo2-7fXYlKeiW-88" edge="1">
          <mxGeometry x="-0.8437" y="-23" relative="1" as="geometry">
            <mxPoint x="23" y="12" as="sourcePoint" />
            <mxPoint x="-238" y="-191" as="targetPoint" />
            <mxPoint as="offset" />
          </mxGeometry>
        </mxCell>
        <mxCell id="9i-a_sATo2-7fXYlKeiW-58" value="Star" style="ellipse;whiteSpace=wrap;html=1;align=center;fontSize=30;" parent="1" vertex="1">
          <mxGeometry x="-664.5" y="56.5" width="100" height="40" as="geometry" />
        </mxCell>
        <mxCell id="9i-a_sATo2-7fXYlKeiW-59" value="Text" style="ellipse;whiteSpace=wrap;html=1;align=center;fontSize=30;" parent="1" vertex="1">
          <mxGeometry x="-23" y="330" width="131" height="54" as="geometry" />
        </mxCell>
        <mxCell id="9i-a_sATo2-7fXYlKeiW-60" value="" style="endArrow=none;html=1;rounded=0;fontSize=30;" parent="1" source="9i-a_sATo2-7fXYlKeiW-64" target="9i-a_sATo2-7fXYlKeiW-59" edge="1">
          <mxGeometry relative="1" as="geometry">
            <mxPoint x="35" y="122" as="sourcePoint" />
            <mxPoint x="86" y="94" as="targetPoint" />
          </mxGeometry>
        </mxCell>
        <mxCell id="9i-a_sATo2-7fXYlKeiW-61" value="Time" style="ellipse;whiteSpace=wrap;html=1;align=center;fontSize=30;" parent="1" vertex="1">
          <mxGeometry x="-30" y="222.5" width="138" height="59" as="geometry" />
        </mxCell>
        <mxCell id="9i-a_sATo2-7fXYlKeiW-62" value="" style="endArrow=none;html=1;rounded=0;fontSize=30;" parent="1" source="9i-a_sATo2-7fXYlKeiW-64" target="9i-a_sATo2-7fXYlKeiW-61" edge="1">
          <mxGeometry relative="1" as="geometry">
            <mxPoint x="-135" y="151" as="sourcePoint" />
            <mxPoint x="-100" y="164" as="targetPoint" />
          </mxGeometry>
        </mxCell>
        <mxCell id="9i-a_sATo2-7fXYlKeiW-63" value="" style="endArrow=none;html=1;rounded=0;fontSize=30;" parent="1" source="9i-a_sATo2-7fXYlKeiW-52" target="9i-a_sATo2-7fXYlKeiW-58" edge="1">
          <mxGeometry relative="1" as="geometry">
            <mxPoint x="-160" y="156" as="sourcePoint" />
            <mxPoint x="-125" y="169" as="targetPoint" />
          </mxGeometry>
        </mxCell>
        <mxCell id="9i-a_sATo2-7fXYlKeiW-64" value="Content" style="ellipse;shape=doubleEllipse;margin=3;whiteSpace=wrap;html=1;align=center;fontSize=30;" parent="1" vertex="1">
          <mxGeometry x="-201" y="240" width="131" height="58" as="geometry" />
        </mxCell>
        <mxCell id="9i-a_sATo2-7fXYlKeiW-65" value="" style="endArrow=none;html=1;rounded=0;fontSize=30;" parent="1" source="9i-a_sATo2-7fXYlKeiW-53" target="9i-a_sATo2-7fXYlKeiW-64" edge="1">
          <mxGeometry relative="1" as="geometry">
            <mxPoint x="-178" y="140" as="sourcePoint" />
            <mxPoint x="-102" y="165" as="targetPoint" />
          </mxGeometry>
        </mxCell>
        <mxCell id="9i-a_sATo2-7fXYlKeiW-66" value="Card number" style="ellipse;whiteSpace=wrap;html=1;align=center;fontSize=30;" parent="1" vertex="1">
          <mxGeometry x="-1012" y="856" width="159" height="76" as="geometry" />
        </mxCell>
        <mxCell id="9i-a_sATo2-7fXYlKeiW-67" value="" style="endArrow=none;html=1;rounded=0;fontSize=30;" parent="1" source="9i-a_sATo2-7fXYlKeiW-29" target="9i-a_sATo2-7fXYlKeiW-66" edge="1">
          <mxGeometry relative="1" as="geometry">
            <mxPoint x="-192" y="389" as="sourcePoint" />
            <mxPoint x="-269" y="407" as="targetPoint" />
          </mxGeometry>
        </mxCell>
        <mxCell id="9i-a_sATo2-7fXYlKeiW-72" value="Age restriction" style="ellipse;whiteSpace=wrap;html=1;align=center;fontSize=30;" parent="1" vertex="1">
          <mxGeometry x="-538" y="-719" width="214" height="59" as="geometry" />
        </mxCell>
        <mxCell id="9i-a_sATo2-7fXYlKeiW-73" value="" style="endArrow=none;html=1;rounded=0;fontSize=30;" parent="1" source="9i-a_sATo2-7fXYlKeiW-72" target="9i-a_sATo2-7fXYlKeiW-1" edge="1">
          <mxGeometry relative="1" as="geometry">
            <mxPoint x="-49.3" y="-485" as="sourcePoint" />
            <mxPoint x="-115.3" y="-305" as="targetPoint" />
          </mxGeometry>
        </mxCell>
        <mxCell id="9i-a_sATo2-7fXYlKeiW-74" value="Wishlist" style="shape=rhombus;perimeter=rhombusPerimeter;whiteSpace=wrap;html=1;align=center;fontSize=30;" parent="1" vertex="1">
          <mxGeometry x="-550" y="120" width="154" height="81" as="geometry" />
        </mxCell>
        <mxCell id="9i-a_sATo2-7fXYlKeiW-76" value="N" style="endArrow=none;html=1;rounded=0;fontSize=30;" parent="1" source="9i-a_sATo2-7fXYlKeiW-74" target="9i-a_sATo2-7fXYlKeiW-88" edge="1">
          <mxGeometry x="-0.7908" y="24" relative="1" as="geometry">
            <mxPoint x="-205" y="10" as="sourcePoint" />
            <mxPoint x="-140" y="-217" as="targetPoint" />
            <mxPoint x="1" as="offset" />
          </mxGeometry>
        </mxCell>
        <mxCell id="9i-a_sATo2-7fXYlKeiW-77" value="N" style="endArrow=none;html=1;rounded=0;fontSize=30;" parent="1" source="9i-a_sATo2-7fXYlKeiW-74" target="9i-a_sATo2-7fXYlKeiW-29" edge="1">
          <mxGeometry x="-0.8479" y="30" relative="1" as="geometry">
            <mxPoint x="12" as="sourcePoint" />
            <mxPoint x="-132" y="-193" as="targetPoint" />
            <mxPoint y="1" as="offset" />
          </mxGeometry>
        </mxCell>
        <mxCell id="9i-a_sATo2-7fXYlKeiW-80" value="Amount" style="ellipse;whiteSpace=wrap;html=1;align=center;fontSize=30;" parent="1" vertex="1">
          <mxGeometry x="-1460" y="-287" width="122" height="54" as="geometry" />
        </mxCell>
        <mxCell id="9i-a_sATo2-7fXYlKeiW-81" value="" style="endArrow=none;html=1;rounded=0;fontSize=30;" parent="1" source="9i-a_sATo2-7fXYlKeiW-80" target="9i-a_sATo2-7fXYlKeiW-134" edge="1">
          <mxGeometry relative="1" as="geometry">
            <mxPoint x="117" y="188" as="sourcePoint" />
            <mxPoint x="-547" y="-40" as="targetPoint" />
          </mxGeometry>
        </mxCell>
        <mxCell id="9i-a_sATo2-7fXYlKeiW-82" value="Physical copy" style="whiteSpace=wrap;html=1;align=center;fontSize=30;fontStyle=1" parent="1" vertex="1">
          <mxGeometry x="-1040" y="-316.5" width="204" height="52" as="geometry" />
        </mxCell>
        <mxCell id="9i-a_sATo2-7fXYlKeiW-83" value="File copy" style="whiteSpace=wrap;html=1;align=center;fontSize=30;fontStyle=1" parent="1" vertex="1">
          <mxGeometry x="-1274.5" y="-464" width="147" height="62.5" as="geometry" />
        </mxCell>
        <mxCell id="9i-a_sATo2-7fXYlKeiW-84" value="d" style="ellipse;whiteSpace=wrap;html=1;aspect=fixed;fontSize=30;" parent="1" vertex="1">
          <mxGeometry x="-930" y="-450" width="40" height="40" as="geometry" />
        </mxCell>
        <mxCell id="9i-a_sATo2-7fXYlKeiW-85" value="" style="endArrow=none;html=1;rounded=0;fontSize=30;" parent="1" source="9i-a_sATo2-7fXYlKeiW-84" target="9i-a_sATo2-7fXYlKeiW-82" edge="1">
          <mxGeometry width="50" height="50" relative="1" as="geometry">
            <mxPoint x="-224" y="-513" as="sourcePoint" />
            <mxPoint x="-174" y="-563" as="targetPoint" />
          </mxGeometry>
        </mxCell>
        <mxCell id="9i-a_sATo2-7fXYlKeiW-86" value="" style="endArrow=none;html=1;rounded=0;fontSize=30;" parent="1" source="9i-a_sATo2-7fXYlKeiW-83" target="9i-a_sATo2-7fXYlKeiW-84" edge="1">
          <mxGeometry width="50" height="50" relative="1" as="geometry">
            <mxPoint x="-216" y="-509" as="sourcePoint" />
            <mxPoint x="-326" y="-438" as="targetPoint" />
          </mxGeometry>
        </mxCell>
        <mxCell id="9i-a_sATo2-7fXYlKeiW-87" value="" style="shape=link;html=1;rounded=0;fontSize=30;" parent="1" source="9i-a_sATo2-7fXYlKeiW-88" target="9i-a_sATo2-7fXYlKeiW-84" edge="1">
          <mxGeometry relative="1" as="geometry">
            <mxPoint x="-252.8" y="-190" as="sourcePoint" />
            <mxPoint x="-553" y="-226" as="targetPoint" />
          </mxGeometry>
        </mxCell>
        <mxCell id="9i-a_sATo2-7fXYlKeiW-88" value="Edition" style="shape=ext;margin=3;double=1;whiteSpace=wrap;html=1;align=center;fontSize=30;fontStyle=1" parent="1" vertex="1">
          <mxGeometry x="-760" y="-316.5" width="146" height="59" as="geometry" />
        </mxCell>
        <mxCell id="9i-a_sATo2-7fXYlKeiW-89" value="Has" style="shape=rhombus;double=1;perimeter=rhombusPerimeter;whiteSpace=wrap;html=1;align=center;fontSize=30;" parent="1" vertex="1">
          <mxGeometry x="-713" y="-446" width="120" height="60" as="geometry" />
        </mxCell>
        <mxCell id="9i-a_sATo2-7fXYlKeiW-90" value="" style="shape=link;html=1;rounded=0;fontSize=30;" parent="1" source="9i-a_sATo2-7fXYlKeiW-88" target="9i-a_sATo2-7fXYlKeiW-89" edge="1">
          <mxGeometry relative="1" as="geometry">
            <mxPoint x="139.2" y="-261" as="sourcePoint" />
            <mxPoint x="299.2" y="-261" as="targetPoint" />
          </mxGeometry>
        </mxCell>
        <mxCell id="9i-a_sATo2-7fXYlKeiW-91" value="N" style="resizable=0;html=1;whiteSpace=wrap;align=right;verticalAlign=bottom;fontSize=30;" parent="9i-a_sATo2-7fXYlKeiW-90" connectable="0" vertex="1">
          <mxGeometry x="1" relative="1" as="geometry">
            <mxPoint x="47" y="35" as="offset" />
          </mxGeometry>
        </mxCell>
        <mxCell id="9i-a_sATo2-7fXYlKeiW-92" value="&lt;font style=&quot;font-size: 30px;&quot;&gt;Discount&lt;/font&gt;" style="rounded=0;whiteSpace=wrap;html=1;fontSize=30;fontStyle=1" parent="1" vertex="1">
          <mxGeometry x="-2022.35" y="50" width="138" height="53" as="geometry" />
        </mxCell>
        <mxCell id="9i-a_sATo2-7fXYlKeiW-93" value="" style="endArrow=none;html=1;rounded=0;fontSize=30;" parent="1" source="9i-a_sATo2-7fXYlKeiW-1" target="9i-a_sATo2-7fXYlKeiW-89" edge="1">
          <mxGeometry relative="1" as="geometry">
            <mxPoint x="296" y="-425" as="sourcePoint" />
            <mxPoint x="134" y="-431" as="targetPoint" />
          </mxGeometry>
        </mxCell>
        <mxCell id="9i-a_sATo2-7fXYlKeiW-94" value="1" style="resizable=0;html=1;whiteSpace=wrap;align=right;verticalAlign=bottom;fontSize=30;" parent="9i-a_sATo2-7fXYlKeiW-93" connectable="0" vertex="1">
          <mxGeometry x="1" relative="1" as="geometry">
            <mxPoint x="7" y="-12" as="offset" />
          </mxGeometry>
        </mxCell>
        <mxCell id="9i-a_sATo2-7fXYlKeiW-95" value="" style="shape=link;html=1;rounded=0;fontSize=30;" parent="1" source="9i-a_sATo2-7fXYlKeiW-88" target="9i-a_sATo2-7fXYlKeiW-13" edge="1">
          <mxGeometry relative="1" as="geometry">
            <mxPoint x="269.2" y="-261" as="sourcePoint" />
            <mxPoint x="429.2" y="-261" as="targetPoint" />
          </mxGeometry>
        </mxCell>
        <mxCell id="9i-a_sATo2-7fXYlKeiW-96" value="N" style="resizable=0;html=1;whiteSpace=wrap;align=right;verticalAlign=bottom;fontSize=30;" parent="9i-a_sATo2-7fXYlKeiW-95" connectable="0" vertex="1">
          <mxGeometry x="1" relative="1" as="geometry">
            <mxPoint x="-2" y="-2" as="offset" />
          </mxGeometry>
        </mxCell>
        <mxCell id="9i-a_sATo2-7fXYlKeiW-97" value="" style="shape=link;html=1;rounded=0;fontSize=30;" parent="1" source="9i-a_sATo2-7fXYlKeiW-88" target="9i-a_sATo2-7fXYlKeiW-12" edge="1">
          <mxGeometry relative="1" as="geometry">
            <mxPoint x="269.2" y="-261" as="sourcePoint" />
            <mxPoint x="429.2" y="-261" as="targetPoint" />
          </mxGeometry>
        </mxCell>
        <mxCell id="9i-a_sATo2-7fXYlKeiW-98" value="N" style="resizable=0;html=1;whiteSpace=wrap;align=right;verticalAlign=bottom;fontSize=30;" parent="9i-a_sATo2-7fXYlKeiW-97" connectable="0" vertex="1">
          <mxGeometry x="1" relative="1" as="geometry">
            <mxPoint x="-23" y="4" as="offset" />
          </mxGeometry>
        </mxCell>
        <mxCell id="9i-a_sATo2-7fXYlKeiW-100" style="shape=connector;rounded=0;orthogonalLoop=1;jettySize=auto;html=1;labelBackgroundColor=default;strokeColor=default;align=center;verticalAlign=middle;fontFamily=Helvetica;fontSize=30;fontColor=default;endArrow=none;endFill=0;" parent="1" source="9i-a_sATo2-7fXYlKeiW-101" target="9i-a_sATo2-7fXYlKeiW-105" edge="1">
          <mxGeometry relative="1" as="geometry" />
        </mxCell>
        <mxCell id="9i-a_sATo2-7fXYlKeiW-101" value="&lt;font style=&quot;font-size: 30px;&quot;&gt;d&lt;/font&gt;" style="strokeWidth=1;html=1;shape=mxgraph.flowchart.start_2;whiteSpace=wrap;fontSize=30;" parent="1" vertex="1">
          <mxGeometry x="-1925.65" y="-100" width="41.3" height="44" as="geometry" />
        </mxCell>
        <mxCell id="9i-a_sATo2-7fXYlKeiW-102" value="" style="endArrow=none;html=1;rounded=0;fontSize=30;" parent="1" source="9i-a_sATo2-7fXYlKeiW-1" target="9i-a_sATo2-7fXYlKeiW-14" edge="1">
          <mxGeometry relative="1" as="geometry">
            <mxPoint x="601.2" y="-216" as="sourcePoint" />
            <mxPoint x="476.2" y="-210" as="targetPoint" />
          </mxGeometry>
        </mxCell>
        <mxCell id="9i-a_sATo2-7fXYlKeiW-103" value="N" style="resizable=0;html=1;whiteSpace=wrap;align=right;verticalAlign=bottom;fontSize=30;" parent="9i-a_sATo2-7fXYlKeiW-102" connectable="0" vertex="1">
          <mxGeometry x="1" relative="1" as="geometry">
            <mxPoint y="-11" as="offset" />
          </mxGeometry>
        </mxCell>
        <mxCell id="9i-a_sATo2-7fXYlKeiW-104" value="&lt;font style=&quot;font-size: 30px;&quot;&gt;Customer discount&lt;/font&gt;" style="whiteSpace=wrap;html=1;align=center;fontFamily=Helvetica;fontSize=30;fontColor=default;fontStyle=1" parent="1" vertex="1">
          <mxGeometry x="-2170" y="-389.5" width="158" height="73" as="geometry" />
        </mxCell>
        <mxCell id="9i-a_sATo2-7fXYlKeiW-105" value="&lt;font style=&quot;font-size: 30px;&quot;&gt;Event discount&lt;/font&gt;" style="whiteSpace=wrap;html=1;align=center;fontFamily=Helvetica;fontSize=30;fontColor=default;fontStyle=1" parent="1" vertex="1">
          <mxGeometry x="-1980" y="-540" width="150" height="76" as="geometry" />
        </mxCell>
        <mxCell id="9i-a_sATo2-7fXYlKeiW-106" style="shape=connector;rounded=0;orthogonalLoop=1;jettySize=auto;html=1;labelBackgroundColor=default;strokeColor=default;align=center;verticalAlign=middle;fontFamily=Helvetica;fontSize=30;fontColor=default;endArrow=none;endFill=0;" parent="1" source="XH5pGMJn1xtLkPsu-FnC-2" target="9i-a_sATo2-7fXYlKeiW-104" edge="1">
          <mxGeometry relative="1" as="geometry">
            <mxPoint x="-2214.6479498844506" y="-420.77898179603085" as="sourcePoint" />
            <mxPoint x="-1185" y="371" as="targetPoint" />
          </mxGeometry>
        </mxCell>
        <mxCell id="9i-a_sATo2-7fXYlKeiW-107" value="Order" style="whiteSpace=wrap;html=1;align=center;fontFamily=Helvetica;fontSize=30;fontColor=default;fontStyle=1" parent="1" vertex="1">
          <mxGeometry x="-1639.5" y="250" width="126" height="50" as="geometry" />
        </mxCell>
        <mxCell id="9i-a_sATo2-7fXYlKeiW-108" value="d" style="ellipse;whiteSpace=wrap;html=1;aspect=fixed;fontSize=30;" parent="1" vertex="1">
          <mxGeometry x="-1588" y="14" width="44" height="44" as="geometry" />
        </mxCell>
        <mxCell id="9i-a_sATo2-7fXYlKeiW-109" value="" style="shape=link;html=1;rounded=0;fontSize=30;" parent="1" source="9i-a_sATo2-7fXYlKeiW-107" target="9i-a_sATo2-7fXYlKeiW-108" edge="1">
          <mxGeometry relative="1" as="geometry">
            <mxPoint x="-446" y="165" as="sourcePoint" />
            <mxPoint x="-763" y="201" as="targetPoint" />
          </mxGeometry>
        </mxCell>
        <mxCell id="9i-a_sATo2-7fXYlKeiW-110" value="Physical order" style="whiteSpace=wrap;html=1;align=center;fontFamily=Helvetica;fontSize=30;fontColor=default;fontStyle=1" parent="1" vertex="1">
          <mxGeometry x="-1421" y="-4.5" width="171" height="81" as="geometry" />
        </mxCell>
        <mxCell id="9i-a_sATo2-7fXYlKeiW-111" value="File order" style="whiteSpace=wrap;html=1;align=center;fontFamily=Helvetica;fontSize=30;fontColor=default;fontStyle=1" parent="1" vertex="1">
          <mxGeometry x="-1655" y="-211" width="157" height="61" as="geometry" />
        </mxCell>
        <mxCell id="9i-a_sATo2-7fXYlKeiW-112" value="" style="endArrow=none;html=1;rounded=0;fontSize=30;" parent="1" source="9i-a_sATo2-7fXYlKeiW-110" target="9i-a_sATo2-7fXYlKeiW-108" edge="1">
          <mxGeometry relative="1" as="geometry">
            <mxPoint x="-243" y="305" as="sourcePoint" />
            <mxPoint x="-239" y="238" as="targetPoint" />
          </mxGeometry>
        </mxCell>
        <mxCell id="9i-a_sATo2-7fXYlKeiW-113" value="" style="endArrow=none;html=1;rounded=0;fontSize=30;" parent="1" source="9i-a_sATo2-7fXYlKeiW-111" target="9i-a_sATo2-7fXYlKeiW-108" edge="1">
          <mxGeometry relative="1" as="geometry">
            <mxPoint x="-717" y="199" as="sourcePoint" />
            <mxPoint x="-667" y="147" as="targetPoint" />
          </mxGeometry>
        </mxCell>
        <mxCell id="9i-a_sATo2-7fXYlKeiW-114" value="ID" style="ellipse;whiteSpace=wrap;html=1;align=center;fontStyle=5;fontSize=30;" parent="1" vertex="1">
          <mxGeometry x="-1730" y="335" width="107" height="44" as="geometry" />
        </mxCell>
        <mxCell id="9i-a_sATo2-7fXYlKeiW-115" style="shape=connector;rounded=0;orthogonalLoop=1;jettySize=auto;html=1;labelBackgroundColor=default;strokeColor=default;align=center;verticalAlign=middle;fontFamily=Helvetica;fontSize=30;fontColor=default;endArrow=none;endFill=0;" parent="1" source="9i-a_sATo2-7fXYlKeiW-116" target="9i-a_sATo2-7fXYlKeiW-105" edge="1">
          <mxGeometry relative="1" as="geometry" />
        </mxCell>
        <mxCell id="9i-a_sATo2-7fXYlKeiW-116" value="&lt;font style=&quot;font-size: 30px;&quot;&gt;Start date&lt;/font&gt;" style="ellipse;whiteSpace=wrap;html=1;align=center;fontFamily=Helvetica;fontSize=30;fontColor=default;" parent="1" vertex="1">
          <mxGeometry x="-2121" y="-696.25" width="146" height="65" as="geometry" />
        </mxCell>
        <mxCell id="9i-a_sATo2-7fXYlKeiW-117" style="shape=connector;rounded=0;orthogonalLoop=1;jettySize=auto;html=1;labelBackgroundColor=default;strokeColor=default;align=center;verticalAlign=middle;fontFamily=Helvetica;fontSize=30;fontColor=default;endArrow=none;endFill=0;" parent="1" source="9i-a_sATo2-7fXYlKeiW-118" target="9i-a_sATo2-7fXYlKeiW-105" edge="1">
          <mxGeometry relative="1" as="geometry" />
        </mxCell>
        <mxCell id="9i-a_sATo2-7fXYlKeiW-118" value="&lt;font style=&quot;font-size: 30px;&quot;&gt;End date&lt;/font&gt;" style="ellipse;whiteSpace=wrap;html=1;align=center;fontFamily=Helvetica;fontSize=30;fontColor=default;" parent="1" vertex="1">
          <mxGeometry x="-2012.0000000000002" y="-750.25" width="138.7" height="60" as="geometry" />
        </mxCell>
        <mxCell id="9i-a_sATo2-7fXYlKeiW-119" value="" style="endArrow=none;html=1;rounded=0;fontSize=30;" parent="1" source="9i-a_sATo2-7fXYlKeiW-107" target="9i-a_sATo2-7fXYlKeiW-114" edge="1">
          <mxGeometry relative="1" as="geometry">
            <mxPoint x="-717" y="199" as="sourcePoint" />
            <mxPoint x="-667" y="147" as="targetPoint" />
          </mxGeometry>
        </mxCell>
        <mxCell id="9i-a_sATo2-7fXYlKeiW-120" value="Destination address" style="ellipse;whiteSpace=wrap;html=1;align=center;fontSize=30;" parent="1" vertex="1">
          <mxGeometry x="-1490" y="130" width="225" height="77" as="geometry" />
        </mxCell>
        <mxCell id="9i-a_sATo2-7fXYlKeiW-121" value="" style="endArrow=none;html=1;rounded=0;fontSize=30;" parent="1" source="9i-a_sATo2-7fXYlKeiW-110" target="9i-a_sATo2-7fXYlKeiW-120" edge="1">
          <mxGeometry relative="1" as="geometry">
            <mxPoint x="-247.7598165903014" y="344.94337495725176" as="sourcePoint" />
            <mxPoint x="-265" y="436" as="targetPoint" />
          </mxGeometry>
        </mxCell>
        <mxCell id="9i-a_sATo2-7fXYlKeiW-122" value="Purchase" style="shape=rhombus;perimeter=rhombusPerimeter;whiteSpace=wrap;html=1;align=center;fontSize=30;" parent="1" vertex="1">
          <mxGeometry x="-1284.5" y="311" width="193" height="79" as="geometry" />
        </mxCell>
        <mxCell id="9i-a_sATo2-7fXYlKeiW-123" value="&lt;font style=&quot;font-size: 30px;&quot;&gt;Discount&lt;/font&gt;" style="ellipse;whiteSpace=wrap;html=1;align=center;fontFamily=Helvetica;fontSize=30;fontColor=default;" parent="1" vertex="1">
          <mxGeometry x="-2170" y="-580" width="144" height="50" as="geometry" />
        </mxCell>
        <mxCell id="9i-a_sATo2-7fXYlKeiW-124" value="1" style="endArrow=none;html=1;rounded=0;fontSize=30;" parent="1" source="9i-a_sATo2-7fXYlKeiW-122" target="9i-a_sATo2-7fXYlKeiW-29" edge="1">
          <mxGeometry x="-0.4341" y="20" relative="1" as="geometry">
            <mxPoint x="-343" y="55" as="sourcePoint" />
            <mxPoint x="-154" y="357" as="targetPoint" />
            <mxPoint as="offset" />
          </mxGeometry>
        </mxCell>
        <mxCell id="9i-a_sATo2-7fXYlKeiW-126" value="Total discount value" style="ellipse;whiteSpace=wrap;html=1;align=center;dashed=1;fontFamily=Helvetica;fontSize=30;fontColor=default;" parent="1" vertex="1">
          <mxGeometry x="-2010" y="346" width="245" height="86.5" as="geometry" />
        </mxCell>
        <mxCell id="9i-a_sATo2-7fXYlKeiW-127" style="rounded=0;orthogonalLoop=1;jettySize=auto;html=1;labelBackgroundColor=default;strokeColor=default;align=center;verticalAlign=middle;fontFamily=Helvetica;fontSize=30;fontColor=default;endArrow=none;endFill=0;" parent="1" source="9i-a_sATo2-7fXYlKeiW-131" target="9i-a_sATo2-7fXYlKeiW-107" edge="1">
          <mxGeometry relative="1" as="geometry" />
        </mxCell>
        <mxCell id="9i-a_sATo2-7fXYlKeiW-128" value="&lt;font style=&quot;font-size: 30px;&quot;&gt;N&lt;/font&gt;" style="edgeLabel;html=1;align=center;verticalAlign=middle;resizable=0;points=[];fontSize=30;" parent="9i-a_sATo2-7fXYlKeiW-127" connectable="0" vertex="1">
          <mxGeometry x="-0.6911" relative="1" as="geometry">
            <mxPoint x="-23" y="-28" as="offset" />
          </mxGeometry>
        </mxCell>
        <mxCell id="9i-a_sATo2-7fXYlKeiW-129" style="rounded=0;orthogonalLoop=1;jettySize=auto;html=1;labelBackgroundColor=default;strokeColor=default;align=center;verticalAlign=middle;fontFamily=Helvetica;fontSize=30;fontColor=default;endArrow=none;endFill=0;" parent="1" source="9i-a_sATo2-7fXYlKeiW-131" target="9i-a_sATo2-7fXYlKeiW-92" edge="1">
          <mxGeometry relative="1" as="geometry" />
        </mxCell>
        <mxCell id="9i-a_sATo2-7fXYlKeiW-130" value="&lt;font style=&quot;font-size: 30px;&quot;&gt;N&lt;/font&gt;" style="edgeLabel;html=1;align=center;verticalAlign=middle;resizable=0;points=[];fontSize=30;" parent="9i-a_sATo2-7fXYlKeiW-129" connectable="0" vertex="1">
          <mxGeometry x="-0.6113" y="-3" relative="1" as="geometry">
            <mxPoint x="21" y="-16" as="offset" />
          </mxGeometry>
        </mxCell>
        <mxCell id="9i-a_sATo2-7fXYlKeiW-131" value="&lt;font style=&quot;font-size: 30px;&quot;&gt;Apply&lt;/font&gt;" style="shape=rhombus;perimeter=rhombusPerimeter;whiteSpace=wrap;html=1;align=center;fontFamily=Helvetica;fontSize=30;fontColor=default;" parent="1" vertex="1">
          <mxGeometry x="-1925.65" y="217" width="139" height="70" as="geometry" />
        </mxCell>
        <mxCell id="9i-a_sATo2-7fXYlKeiW-132" value="File order contain" style="shape=rhombus;perimeter=rhombusPerimeter;whiteSpace=wrap;html=1;align=center;fontSize=30;" parent="1" vertex="1">
          <mxGeometry x="-1711" y="-480" width="293" height="150.5" as="geometry" />
        </mxCell>
        <mxCell id="9i-a_sATo2-7fXYlKeiW-133" style="shape=connector;rounded=0;orthogonalLoop=1;jettySize=auto;html=1;labelBackgroundColor=default;strokeColor=default;align=center;verticalAlign=middle;fontFamily=Helvetica;fontSize=30;fontColor=default;endArrow=none;endFill=0;" parent="1" source="9i-a_sATo2-7fXYlKeiW-135" target="9i-a_sATo2-7fXYlKeiW-107" edge="1">
          <mxGeometry relative="1" as="geometry" />
        </mxCell>
        <mxCell id="9i-a_sATo2-7fXYlKeiW-134" value="Physical order contain" style="shape=rhombus;perimeter=rhombusPerimeter;whiteSpace=wrap;html=1;align=center;fontSize=30;" parent="1" vertex="1">
          <mxGeometry x="-1434.5" y="-230" width="288" height="174" as="geometry" />
        </mxCell>
        <mxCell id="9i-a_sATo2-7fXYlKeiW-135" value="Total cost" style="ellipse;whiteSpace=wrap;html=1;align=center;dashed=1;fontFamily=Helvetica;fontSize=30;fontColor=default;" parent="1" vertex="1">
          <mxGeometry x="-1490" y="384" width="152" height="49" as="geometry" />
        </mxCell>
        <mxCell id="9i-a_sATo2-7fXYlKeiW-136" style="shape=connector;rounded=0;orthogonalLoop=1;jettySize=auto;html=1;labelBackgroundColor=default;strokeColor=default;align=center;verticalAlign=middle;fontFamily=Helvetica;fontSize=30;fontColor=default;endArrow=none;endFill=0;" parent="1" source="9i-a_sATo2-7fXYlKeiW-123" target="9i-a_sATo2-7fXYlKeiW-105" edge="1">
          <mxGeometry relative="1" as="geometry" />
        </mxCell>
        <mxCell id="9i-a_sATo2-7fXYlKeiW-137" value="N" style="endArrow=none;html=1;rounded=0;fontSize=30;" parent="1" source="9i-a_sATo2-7fXYlKeiW-132" target="9i-a_sATo2-7fXYlKeiW-83" edge="1">
          <mxGeometry x="-0.4397" y="40" relative="1" as="geometry">
            <mxPoint x="-777" y="-268" as="sourcePoint" />
            <mxPoint x="-872" y="-171" as="targetPoint" />
            <mxPoint as="offset" />
          </mxGeometry>
        </mxCell>
        <mxCell id="9i-a_sATo2-7fXYlKeiW-138" value="N" style="endArrow=none;html=1;rounded=0;fontSize=30;" parent="1" source="9i-a_sATo2-7fXYlKeiW-134" target="9i-a_sATo2-7fXYlKeiW-82" edge="1">
          <mxGeometry x="-0.8454" y="27" relative="1" as="geometry">
            <mxPoint x="-711" y="-307" as="sourcePoint" />
            <mxPoint x="-599" y="-344" as="targetPoint" />
            <mxPoint as="offset" />
          </mxGeometry>
        </mxCell>
        <mxCell id="9i-a_sATo2-7fXYlKeiW-139" value="Date of birth" style="ellipse;whiteSpace=wrap;html=1;align=center;fontSize=30;" parent="1" vertex="1">
          <mxGeometry x="-151" width="186" height="55" as="geometry" />
        </mxCell>
        <mxCell id="9i-a_sATo2-7fXYlKeiW-140" value="Gender" style="ellipse;whiteSpace=wrap;html=1;align=center;fontSize=30;" parent="1" vertex="1">
          <mxGeometry x="40" y="-30" width="108" height="44" as="geometry" />
        </mxCell>
        <mxCell id="9i-a_sATo2-7fXYlKeiW-141" value="" style="endArrow=none;html=1;rounded=0;fontSize=30;" parent="1" source="9i-a_sATo2-7fXYlKeiW-139" target="9i-a_sATo2-7fXYlKeiW-11" edge="1">
          <mxGeometry relative="1" as="geometry">
            <mxPoint x="494.4500000000001" y="-246" as="sourcePoint" />
            <mxPoint x="450.45000000000005" y="-222" as="targetPoint" />
          </mxGeometry>
        </mxCell>
        <mxCell id="9i-a_sATo2-7fXYlKeiW-142" value="" style="endArrow=none;html=1;rounded=0;fontSize=30;" parent="1" source="9i-a_sATo2-7fXYlKeiW-140" target="9i-a_sATo2-7fXYlKeiW-11" edge="1">
          <mxGeometry relative="1" as="geometry">
            <mxPoint x="514.45" y="-209" as="sourcePoint" />
            <mxPoint x="463.45000000000005" y="-206" as="targetPoint" />
          </mxGeometry>
        </mxCell>
        <mxCell id="9i-a_sATo2-7fXYlKeiW-143" value="Place of birth" style="ellipse;whiteSpace=wrap;html=1;align=center;fontSize=30;" parent="1" vertex="1">
          <mxGeometry x="70" y="-143" width="166" height="76" as="geometry" />
        </mxCell>
        <mxCell id="9i-a_sATo2-7fXYlKeiW-144" value="" style="endArrow=none;html=1;rounded=0;fontSize=30;" parent="1" source="9i-a_sATo2-7fXYlKeiW-143" target="9i-a_sATo2-7fXYlKeiW-11" edge="1">
          <mxGeometry relative="1" as="geometry">
            <mxPoint x="528.45" y="-166" as="sourcePoint" />
            <mxPoint x="463.45000000000005" y="-186" as="targetPoint" />
          </mxGeometry>
        </mxCell>
        <mxCell id="9i-a_sATo2-7fXYlKeiW-145" value="&lt;u style=&quot;font-size: 30px;&quot;&gt;&lt;font style=&quot;font-size: 30px;&quot;&gt;ID&lt;/font&gt;&lt;/u&gt;" style="ellipse;whiteSpace=wrap;html=1;align=center;fontFamily=Helvetica;fontSize=30;fontColor=default;fontStyle=1" parent="1" vertex="1">
          <mxGeometry x="-2190" y="16" width="100" height="40" as="geometry" />
        </mxCell>
        <mxCell id="9i-a_sATo2-7fXYlKeiW-146" style="rounded=0;orthogonalLoop=1;jettySize=auto;html=1;endArrow=none;endFill=0;fontSize=30;" parent="1" source="9i-a_sATo2-7fXYlKeiW-92" target="9i-a_sATo2-7fXYlKeiW-145" edge="1">
          <mxGeometry relative="1" as="geometry">
            <mxPoint x="-1192" y="307" as="sourcePoint" />
            <mxPoint x="-1194" y="262" as="targetPoint" />
          </mxGeometry>
        </mxCell>
        <mxCell id="9i-a_sATo2-7fXYlKeiW-148" value="&lt;font style=&quot;font-size: 30px;&quot;&gt;Point&lt;/font&gt;" style="ellipse;whiteSpace=wrap;html=1;align=center;fontSize=30;" parent="1" vertex="1">
          <mxGeometry x="-2440" y="-560" width="112" height="51" as="geometry" />
        </mxCell>
        <mxCell id="9i-a_sATo2-7fXYlKeiW-149" value="&lt;font style=&quot;font-size: 30px;&quot;&gt;Discount&lt;/font&gt;" style="ellipse;whiteSpace=wrap;html=1;align=center;fontSize=30;" parent="1" vertex="1">
          <mxGeometry x="-2451.5" y="-404.75" width="135" height="61" as="geometry" />
        </mxCell>
        <mxCell id="9i-a_sATo2-7fXYlKeiW-150" style="shape=connector;rounded=0;orthogonalLoop=1;jettySize=auto;html=1;labelBackgroundColor=default;strokeColor=default;align=center;verticalAlign=middle;fontFamily=Helvetica;fontSize=30;fontColor=default;endArrow=none;endFill=0;" parent="1" source="9i-a_sATo2-7fXYlKeiW-149" target="XH5pGMJn1xtLkPsu-FnC-2" edge="1">
          <mxGeometry relative="1" as="geometry">
            <mxPoint x="-1369" y="366" as="sourcePoint" />
            <mxPoint x="-2313" y="-419" as="targetPoint" />
          </mxGeometry>
        </mxCell>
        <mxCell id="9i-a_sATo2-7fXYlKeiW-151" style="shape=connector;rounded=0;orthogonalLoop=1;jettySize=auto;html=1;labelBackgroundColor=default;strokeColor=default;align=center;verticalAlign=middle;fontFamily=Helvetica;fontSize=30;fontColor=default;endArrow=none;endFill=0;" parent="1" source="9i-a_sATo2-7fXYlKeiW-148" target="XH5pGMJn1xtLkPsu-FnC-2" edge="1">
          <mxGeometry relative="1" as="geometry">
            <mxPoint x="-1481" y="343" as="sourcePoint" />
            <mxPoint x="-2308.881753062076" y="-479.87689248444576" as="targetPoint" />
          </mxGeometry>
        </mxCell>
        <mxCell id="9i-a_sATo2-7fXYlKeiW-152" value="Point" style="ellipse;whiteSpace=wrap;html=1;align=center;fontSize=30;" parent="1" vertex="1">
          <mxGeometry x="-1178" y="845.5" width="102" height="52" as="geometry" />
        </mxCell>
        <mxCell id="9i-a_sATo2-7fXYlKeiW-153" value="" style="endArrow=none;html=1;rounded=0;fontSize=30;" parent="1" source="9i-a_sATo2-7fXYlKeiW-29" target="9i-a_sATo2-7fXYlKeiW-152" edge="1">
          <mxGeometry relative="1" as="geometry">
            <mxPoint x="-192" y="373" as="sourcePoint" />
            <mxPoint x="-267" y="366" as="targetPoint" />
          </mxGeometry>
        </mxCell>
        <mxCell id="9i-a_sATo2-7fXYlKeiW-154" style="shape=connector;rounded=0;orthogonalLoop=1;jettySize=auto;html=1;labelBackgroundColor=default;strokeColor=default;align=center;verticalAlign=middle;fontFamily=Helvetica;fontSize=30;fontColor=default;endArrow=none;endFill=0;" parent="1" source="9i-a_sATo2-7fXYlKeiW-126" target="9i-a_sATo2-7fXYlKeiW-107" edge="1">
          <mxGeometry relative="1" as="geometry">
            <mxPoint x="-585" y="183" as="sourcePoint" />
            <mxPoint x="-612" y="218" as="targetPoint" />
          </mxGeometry>
        </mxCell>
        <mxCell id="9i-a_sATo2-7fXYlKeiW-157" value="&lt;span style=&quot;border-bottom: 1px dotted; font-size: 30px;&quot;&gt;Number&lt;/span&gt;" style="ellipse;whiteSpace=wrap;html=1;align=center;fontSize=30;fontStyle=0" parent="1" vertex="1">
          <mxGeometry x="-524" y="-386" width="130" height="73" as="geometry" />
        </mxCell>
        <mxCell id="9i-a_sATo2-7fXYlKeiW-158" value="" style="endArrow=none;html=1;rounded=0;fontSize=30;" parent="1" source="9i-a_sATo2-7fXYlKeiW-157" target="9i-a_sATo2-7fXYlKeiW-88" edge="1">
          <mxGeometry relative="1" as="geometry">
            <mxPoint x="-295" y="-317" as="sourcePoint" />
            <mxPoint x="-245" y="-296" as="targetPoint" />
          </mxGeometry>
        </mxCell>
        <mxCell id="9i-a_sATo2-7fXYlKeiW-159" value="" style="rounded=0;orthogonalLoop=1;jettySize=auto;html=1;endArrow=halfCircle;endFill=0;endSize=6;strokeWidth=1;sketch=0;fontSize=12;curved=1;" parent="1" source="9i-a_sATo2-7fXYlKeiW-104" edge="1">
          <mxGeometry relative="1" as="geometry">
            <mxPoint x="-1355" y="507.96000000000004" as="sourcePoint" />
            <mxPoint x="-1940" y="-130" as="targetPoint" />
          </mxGeometry>
        </mxCell>
        <mxCell id="9i-a_sATo2-7fXYlKeiW-160" value="" style="ellipse;whiteSpace=wrap;html=1;align=center;aspect=fixed;fillColor=none;strokeColor=none;resizable=0;perimeter=centerPerimeter;rotatable=0;allowArrows=0;points=[];outlineConnect=1;" parent="1" vertex="1">
          <mxGeometry x="-1408" y="503" width="10" height="10" as="geometry" />
        </mxCell>
        <mxCell id="9i-a_sATo2-7fXYlKeiW-161" style="shape=connector;rounded=0;orthogonalLoop=1;jettySize=auto;html=1;labelBackgroundColor=default;strokeColor=default;align=center;verticalAlign=middle;fontFamily=Helvetica;fontSize=30;fontColor=default;endArrow=none;endFill=0;" parent="1" source="9i-a_sATo2-7fXYlKeiW-101" target="9i-a_sATo2-7fXYlKeiW-104" edge="1">
          <mxGeometry relative="1" as="geometry">
            <mxPoint x="-1314" y="482" as="sourcePoint" />
            <mxPoint x="-1730" y="520" as="targetPoint" />
          </mxGeometry>
        </mxCell>
        <mxCell id="9i-a_sATo2-7fXYlKeiW-162" value="" style="rounded=0;orthogonalLoop=1;jettySize=auto;html=1;endArrow=halfCircle;endFill=0;endSize=6;strokeWidth=1;sketch=0;fontSize=12;curved=1;" parent="1" source="9i-a_sATo2-7fXYlKeiW-105" edge="1">
          <mxGeometry relative="1" as="geometry">
            <mxPoint x="-1377" y="457" as="sourcePoint" />
            <mxPoint x="-1905" y="-170" as="targetPoint" />
          </mxGeometry>
        </mxCell>
        <mxCell id="9i-a_sATo2-7fXYlKeiW-163" value="" style="ellipse;whiteSpace=wrap;html=1;align=center;aspect=fixed;fillColor=none;strokeColor=none;resizable=0;perimeter=centerPerimeter;rotatable=0;allowArrows=0;points=[];outlineConnect=1;" parent="1" vertex="1">
          <mxGeometry x="-1402" y="452" width="10" height="10" as="geometry" />
        </mxCell>
        <mxCell id="9i-a_sATo2-7fXYlKeiW-164" value="" style="rounded=0;orthogonalLoop=1;jettySize=auto;html=1;endArrow=halfCircle;endFill=0;endSize=6;strokeWidth=1;sketch=0;fontSize=12;curved=1;" parent="1" source="9i-a_sATo2-7fXYlKeiW-111" edge="1">
          <mxGeometry relative="1" as="geometry">
            <mxPoint x="-1412" y="-146" as="sourcePoint" />
            <mxPoint x="-1570" y="-81" as="targetPoint" />
          </mxGeometry>
        </mxCell>
        <mxCell id="9i-a_sATo2-7fXYlKeiW-165" value="" style="ellipse;whiteSpace=wrap;html=1;align=center;aspect=fixed;fillColor=none;strokeColor=none;resizable=0;perimeter=centerPerimeter;rotatable=0;allowArrows=0;points=[];outlineConnect=1;" parent="1" vertex="1">
          <mxGeometry x="-1437" y="-151" width="10" height="10" as="geometry" />
        </mxCell>
        <mxCell id="9i-a_sATo2-7fXYlKeiW-166" value="" style="rounded=0;orthogonalLoop=1;jettySize=auto;html=1;endArrow=halfCircle;endFill=0;endSize=6;strokeWidth=1;sketch=0;fontSize=12;curved=1;" parent="1" source="9i-a_sATo2-7fXYlKeiW-110" edge="1">
          <mxGeometry relative="1" as="geometry">
            <mxPoint x="-1557" y="24" as="sourcePoint" />
            <mxPoint x="-1510" y="36" as="targetPoint" />
          </mxGeometry>
        </mxCell>
        <mxCell id="9i-a_sATo2-7fXYlKeiW-167" value="" style="rounded=0;orthogonalLoop=1;jettySize=auto;html=1;endArrow=halfCircle;endFill=0;endSize=6;strokeWidth=1;sketch=0;fontSize=12;curved=1;" parent="1" source="9i-a_sATo2-7fXYlKeiW-83" edge="1">
          <mxGeometry relative="1" as="geometry">
            <mxPoint x="-993" y="-155" as="sourcePoint" />
            <mxPoint x="-970" y="-430" as="targetPoint" />
          </mxGeometry>
        </mxCell>
        <mxCell id="9i-a_sATo2-7fXYlKeiW-168" value="" style="ellipse;whiteSpace=wrap;html=1;align=center;aspect=fixed;fillColor=none;strokeColor=none;resizable=0;perimeter=centerPerimeter;rotatable=0;allowArrows=0;points=[];outlineConnect=1;" parent="1" vertex="1">
          <mxGeometry x="-1018" y="-160" width="10" height="10" as="geometry" />
        </mxCell>
        <mxCell id="9i-a_sATo2-7fXYlKeiW-169" value="" style="rounded=0;orthogonalLoop=1;jettySize=auto;html=1;endArrow=halfCircle;endFill=0;endSize=6;strokeWidth=1;sketch=0;fontSize=12;curved=1;" parent="1" source="9i-a_sATo2-7fXYlKeiW-82" edge="1">
          <mxGeometry relative="1" as="geometry">
            <mxPoint x="-1085" y="-348" as="sourcePoint" />
            <mxPoint x="-920" y="-380" as="targetPoint" />
          </mxGeometry>
        </mxCell>
        <mxCell id="9i-a_sATo2-7fXYlKeiW-170" value="" style="ellipse;whiteSpace=wrap;html=1;align=center;aspect=fixed;fillColor=none;strokeColor=none;resizable=0;perimeter=centerPerimeter;rotatable=0;allowArrows=0;points=[];outlineConnect=1;" parent="1" vertex="1">
          <mxGeometry x="-1008" y="-150" width="10" height="10" as="geometry" />
        </mxCell>
        <mxCell id="9i-a_sATo2-7fXYlKeiW-171" value="" style="shape=link;html=1;rounded=0;fontSize=30;" parent="1" source="9i-a_sATo2-7fXYlKeiW-110" target="9i-a_sATo2-7fXYlKeiW-134" edge="1">
          <mxGeometry relative="1" as="geometry">
            <mxPoint x="-623" y="-196" as="sourcePoint" />
            <mxPoint x="-458" y="-153" as="targetPoint" />
          </mxGeometry>
        </mxCell>
        <mxCell id="9i-a_sATo2-7fXYlKeiW-172" value="N" style="resizable=0;html=1;whiteSpace=wrap;align=right;verticalAlign=bottom;fontSize=30;" parent="9i-a_sATo2-7fXYlKeiW-171" connectable="0" vertex="1">
          <mxGeometry x="1" relative="1" as="geometry">
            <mxPoint x="-26" y="28" as="offset" />
          </mxGeometry>
        </mxCell>
        <mxCell id="9i-a_sATo2-7fXYlKeiW-173" value="" style="shape=link;html=1;rounded=0;fontSize=30;" parent="1" source="9i-a_sATo2-7fXYlKeiW-111" target="9i-a_sATo2-7fXYlKeiW-132" edge="1">
          <mxGeometry relative="1" as="geometry">
            <mxPoint x="-1350" y="-138" as="sourcePoint" />
            <mxPoint x="-1298" y="-165" as="targetPoint" />
          </mxGeometry>
        </mxCell>
        <mxCell id="9i-a_sATo2-7fXYlKeiW-174" value="N" style="resizable=0;html=1;whiteSpace=wrap;align=right;verticalAlign=bottom;fontSize=30;" parent="9i-a_sATo2-7fXYlKeiW-173" connectable="0" vertex="1">
          <mxGeometry x="1" relative="1" as="geometry">
            <mxPoint x="-28" y="21" as="offset" />
          </mxGeometry>
        </mxCell>
        <mxCell id="xpuRQxSQrWLPkJfT1B19-3" value="Reference" style="shape=rhombus;perimeter=rhombusPerimeter;whiteSpace=wrap;html=1;align=center;fontSize=30;" parent="1" vertex="1">
          <mxGeometry x="-664.5" y="480" width="193" height="79" as="geometry" />
        </mxCell>
        <mxCell id="xpuRQxSQrWLPkJfT1B19-6" value="1" style="endArrow=none;html=1;rounded=0;fontSize=30;exitX=0;exitY=0.5;exitDx=0;exitDy=0;" parent="1" source="xpuRQxSQrWLPkJfT1B19-3" target="9i-a_sATo2-7fXYlKeiW-29" edge="1">
          <mxGeometry x="-0.7591" y="-14" relative="1" as="geometry">
            <mxPoint x="-1119" y="481" as="sourcePoint" />
            <mxPoint x="-1008" y="638" as="targetPoint" />
            <mxPoint as="offset" />
          </mxGeometry>
        </mxCell>
        <mxCell id="xpuRQxSQrWLPkJfT1B19-7" value="N" style="endArrow=none;html=1;rounded=0;fontSize=30;exitX=0.5;exitY=1;exitDx=0;exitDy=0;" parent="1" source="xpuRQxSQrWLPkJfT1B19-3" target="9i-a_sATo2-7fXYlKeiW-29" edge="1">
          <mxGeometry x="-0.8657" y="27" relative="1" as="geometry">
            <mxPoint x="-772" y="126" as="sourcePoint" />
            <mxPoint x="-969" y="638" as="targetPoint" />
            <mxPoint as="offset" />
          </mxGeometry>
        </mxCell>
        <mxCell id="xpuRQxSQrWLPkJfT1B19-11" value="Apply for" style="shape=rhombus;perimeter=rhombusPerimeter;whiteSpace=wrap;html=1;align=center;fontSize=30;" parent="1" vertex="1">
          <mxGeometry x="-1449" y="-720" width="209" height="100" as="geometry" />
        </mxCell>
        <mxCell id="xpuRQxSQrWLPkJfT1B19-12" value="N" style="endArrow=none;html=1;rounded=0;fontSize=30;" parent="1" source="9i-a_sATo2-7fXYlKeiW-105" target="xpuRQxSQrWLPkJfT1B19-11" edge="1">
          <mxGeometry x="0.7888" y="24" relative="1" as="geometry">
            <mxPoint x="-1440" y="-467" as="sourcePoint" />
            <mxPoint x="-1315" y="-493" as="targetPoint" />
            <mxPoint y="1" as="offset" />
          </mxGeometry>
        </mxCell>
        <mxCell id="xpuRQxSQrWLPkJfT1B19-13" value="N" style="endArrow=none;html=1;rounded=0;fontSize=30;" parent="1" source="9i-a_sATo2-7fXYlKeiW-1" target="xpuRQxSQrWLPkJfT1B19-11" edge="1">
          <mxGeometry x="0.7602" y="-28" relative="1" as="geometry">
            <mxPoint x="-1820" y="-514" as="sourcePoint" />
            <mxPoint x="-1399" y="-641" as="targetPoint" />
            <mxPoint as="offset" />
          </mxGeometry>
        </mxCell>
        <mxCell id="xpuRQxSQrWLPkJfT1B19-14" value="&lt;font style=&quot;font-size: 30px;&quot;&gt;Apply for all&lt;/font&gt;" style="ellipse;whiteSpace=wrap;html=1;align=center;fontFamily=Helvetica;fontSize=30;fontColor=default;" parent="1" vertex="1">
          <mxGeometry x="-1840" y="-740" width="170" height="81" as="geometry" />
        </mxCell>
        <mxCell id="xpuRQxSQrWLPkJfT1B19-15" style="shape=connector;rounded=0;orthogonalLoop=1;jettySize=auto;html=1;labelBackgroundColor=default;strokeColor=default;align=center;verticalAlign=middle;fontFamily=Helvetica;fontSize=30;fontColor=default;endArrow=none;endFill=0;" parent="1" source="xpuRQxSQrWLPkJfT1B19-14" target="9i-a_sATo2-7fXYlKeiW-105" edge="1">
          <mxGeometry relative="1" as="geometry">
            <mxPoint x="-1928" y="-680" as="sourcePoint" />
            <mxPoint x="-1902" y="-530" as="targetPoint" />
          </mxGeometry>
        </mxCell>
        <mxCell id="4SuM8oQs_tMOg6NlUPcR-1" value="" style="shape=link;html=1;rounded=0;fontSize=30;" parent="1" source="9i-a_sATo2-7fXYlKeiW-107" target="9i-a_sATo2-7fXYlKeiW-122" edge="1">
          <mxGeometry relative="1" as="geometry">
            <mxPoint x="-604" y="-274" as="sourcePoint" />
            <mxPoint x="-352" y="-262" as="targetPoint" />
          </mxGeometry>
        </mxCell>
        <mxCell id="4SuM8oQs_tMOg6NlUPcR-2" value="N" style="resizable=0;html=1;whiteSpace=wrap;align=right;verticalAlign=bottom;fontSize=30;" parent="4SuM8oQs_tMOg6NlUPcR-1" connectable="0" vertex="1">
          <mxGeometry x="1" relative="1" as="geometry">
            <mxPoint x="-11" y="-8" as="offset" />
          </mxGeometry>
        </mxCell>
        <mxCell id="ORhCNrLr9_r4Z-ZJ4Re7-1" value="" style="shape=link;html=1;rounded=0;fontSize=30;" parent="1" source="9i-a_sATo2-7fXYlKeiW-92" target="9i-a_sATo2-7fXYlKeiW-101" edge="1">
          <mxGeometry relative="1" as="geometry">
            <mxPoint x="-1565" y="260" as="sourcePoint" />
            <mxPoint x="-1557" y="68" as="targetPoint" />
          </mxGeometry>
        </mxCell>
        <mxCell id="ORhCNrLr9_r4Z-ZJ4Re7-2" value="&lt;font style=&quot;font-size: 30px;&quot;&gt;Referrer discount&lt;/font&gt;" style="whiteSpace=wrap;html=1;align=center;fontFamily=Helvetica;fontSize=30;fontColor=default;fontStyle=1" parent="1" vertex="1">
          <mxGeometry x="-2200" y="-200" width="158" height="73" as="geometry" />
        </mxCell>
        <mxCell id="ORhCNrLr9_r4Z-ZJ4Re7-3" style="shape=connector;rounded=0;orthogonalLoop=1;jettySize=auto;html=1;labelBackgroundColor=default;strokeColor=default;align=center;verticalAlign=middle;fontFamily=Helvetica;fontSize=30;fontColor=default;endArrow=none;endFill=0;" parent="1" source="9i-a_sATo2-7fXYlKeiW-101" target="ORhCNrLr9_r4Z-ZJ4Re7-2" edge="1">
          <mxGeometry relative="1" as="geometry">
            <mxPoint x="-1910" y="-90" as="sourcePoint" />
            <mxPoint x="-2056" y="-306" as="targetPoint" />
          </mxGeometry>
        </mxCell>
        <mxCell id="ORhCNrLr9_r4Z-ZJ4Re7-4" value="" style="rounded=0;orthogonalLoop=1;jettySize=auto;html=1;endArrow=halfCircle;endFill=0;endSize=6;strokeWidth=1;sketch=0;fontSize=12;curved=1;" parent="1" source="ORhCNrLr9_r4Z-ZJ4Re7-2" edge="1">
          <mxGeometry relative="1" as="geometry">
            <mxPoint x="-2056" y="-307" as="sourcePoint" />
            <mxPoint x="-1960" y="-100" as="targetPoint" />
          </mxGeometry>
        </mxCell>
        <mxCell id="ORhCNrLr9_r4Z-ZJ4Re7-5" style="shape=connector;rounded=0;orthogonalLoop=1;jettySize=auto;html=1;labelBackgroundColor=default;strokeColor=default;align=center;verticalAlign=middle;fontFamily=Helvetica;fontSize=30;fontColor=default;endArrow=none;endFill=0;" parent="1" source="XH5pGMJn1xtLkPsu-FnC-1" target="ORhCNrLr9_r4Z-ZJ4Re7-2" edge="1">
          <mxGeometry relative="1" as="geometry">
            <mxPoint x="-2252.195350028607" y="-169.70436931926542" as="sourcePoint" />
            <mxPoint x="-2266.5" y="-127.12" as="targetPoint" />
          </mxGeometry>
        </mxCell>
        <mxCell id="ORhCNrLr9_r4Z-ZJ4Re7-7" value="&lt;font style=&quot;font-size: 30px;&quot;&gt;Number of people&lt;/font&gt;" style="ellipse;whiteSpace=wrap;html=1;align=center;fontSize=30;" parent="1" vertex="1">
          <mxGeometry x="-2440" y="-329.5" width="201.5" height="95" as="geometry" />
        </mxCell>
        <mxCell id="ORhCNrLr9_r4Z-ZJ4Re7-8" value="&lt;font style=&quot;font-size: 30px;&quot;&gt;Discount&lt;/font&gt;" style="ellipse;whiteSpace=wrap;html=1;align=center;fontSize=30;" parent="1" vertex="1">
          <mxGeometry x="-2451.5" y="-80" width="135" height="61" as="geometry" />
        </mxCell>
        <mxCell id="ORhCNrLr9_r4Z-ZJ4Re7-9" style="shape=connector;rounded=0;orthogonalLoop=1;jettySize=auto;html=1;labelBackgroundColor=default;strokeColor=default;align=center;verticalAlign=middle;fontFamily=Helvetica;fontSize=30;fontColor=default;endArrow=none;endFill=0;" parent="1" source="ORhCNrLr9_r4Z-ZJ4Re7-8" target="XH5pGMJn1xtLkPsu-FnC-1" edge="1">
          <mxGeometry relative="1" as="geometry">
            <mxPoint x="-1477.5" y="627.88" as="sourcePoint" />
            <mxPoint x="-2343.4046415069834" y="-135.08002075998525" as="targetPoint" />
          </mxGeometry>
        </mxCell>
        <mxCell id="ORhCNrLr9_r4Z-ZJ4Re7-10" style="shape=connector;rounded=0;orthogonalLoop=1;jettySize=auto;html=1;labelBackgroundColor=default;strokeColor=default;align=center;verticalAlign=middle;fontFamily=Helvetica;fontSize=30;fontColor=default;endArrow=none;endFill=0;" parent="1" source="ORhCNrLr9_r4Z-ZJ4Re7-7" target="XH5pGMJn1xtLkPsu-FnC-1" edge="1">
          <mxGeometry relative="1" as="geometry">
            <mxPoint x="-1589.5" y="604.88" as="sourcePoint" />
            <mxPoint x="-2330.382644334586" y="-210.9324195494503" as="targetPoint" />
          </mxGeometry>
        </mxCell>
        <mxCell id="XH5pGMJn1xtLkPsu-FnC-1" value="&lt;font style=&quot;font-size: 30px;&quot;&gt;Milestone&lt;/font&gt;" style="ellipse;whiteSpace=wrap;html=1;align=center;fontSize=30;" parent="1" vertex="1">
          <mxGeometry x="-2370" y="-189" width="136.5" height="68" as="geometry" />
        </mxCell>
        <mxCell id="XH5pGMJn1xtLkPsu-FnC-2" value="&lt;font style=&quot;font-size: 30px;&quot;&gt;Milestone&lt;/font&gt;" style="ellipse;whiteSpace=wrap;html=1;align=center;fontSize=30;" parent="1" vertex="1">
          <mxGeometry x="-2336.5" y="-487" width="136.5" height="68" as="geometry" />
        </mxCell>
        <mxCell id="TZegP9xbpwAwlt2XYdCY-2" style="rounded=0;orthogonalLoop=1;jettySize=auto;html=1;endArrow=none;endFill=0;" parent="1" source="XDjbEI3GDWVV4cX0tYsu-1" target="9i-a_sATo2-7fXYlKeiW-107" edge="1">
          <mxGeometry relative="1" as="geometry">
            <mxPoint x="-1706.0727750875126" y="150.30499405174487" as="sourcePoint" />
          </mxGeometry>
        </mxCell>
        <mxCell id="TZegP9xbpwAwlt2XYdCY-5" style="edgeStyle=none;shape=connector;rounded=0;orthogonalLoop=1;jettySize=auto;html=1;entryX=0.666;entryY=0.01;entryDx=0;entryDy=0;labelBackgroundColor=default;strokeColor=default;align=center;verticalAlign=middle;fontFamily=Helvetica;fontSize=11;fontColor=default;endArrow=none;endFill=0;entryPerimeter=0;" parent="1" source="TZegP9xbpwAwlt2XYdCY-4" target="9i-a_sATo2-7fXYlKeiW-88" edge="1">
          <mxGeometry relative="1" as="geometry" />
        </mxCell>
        <mxCell id="TZegP9xbpwAwlt2XYdCY-4" value="&lt;font style=&quot;font-size: 30px;&quot;&gt;Average star&lt;/font&gt;" style="ellipse;whiteSpace=wrap;html=1;align=center;dashed=1;strokeColor=default;verticalAlign=middle;fontFamily=Helvetica;fontSize=11;fontColor=default;fillColor=default;" parent="1" vertex="1">
          <mxGeometry x="-573" y="-473.5" width="200" height="63.5" as="geometry" />
        </mxCell>
        <mxCell id="TZegP9xbpwAwlt2XYdCY-8" style="edgeStyle=none;shape=connector;rounded=0;orthogonalLoop=1;jettySize=auto;html=1;labelBackgroundColor=default;strokeColor=default;align=center;verticalAlign=middle;fontFamily=Helvetica;fontSize=11;fontColor=default;endArrow=none;endFill=0;" parent="1" source="TZegP9xbpwAwlt2XYdCY-6" target="9i-a_sATo2-7fXYlKeiW-82" edge="1">
          <mxGeometry relative="1" as="geometry" />
        </mxCell>
        <mxCell id="TZegP9xbpwAwlt2XYdCY-6" value="&lt;font style=&quot;font-size: 30px;&quot;&gt;Number in stock&lt;/font&gt;" style="ellipse;whiteSpace=wrap;html=1;align=center;dashed=1;strokeColor=default;verticalAlign=middle;fontFamily=Helvetica;fontSize=11;fontColor=default;fillColor=default;" parent="1" vertex="1">
          <mxGeometry x="-940" y="-220" width="200" height="110" as="geometry" />
        </mxCell>
        <mxCell id="TZegP9xbpwAwlt2XYdCY-10" style="edgeStyle=none;shape=connector;rounded=0;orthogonalLoop=1;jettySize=auto;html=1;labelBackgroundColor=default;strokeColor=default;align=center;verticalAlign=middle;fontFamily=Helvetica;fontSize=11;fontColor=default;endArrow=none;endFill=0;" parent="1" source="TZegP9xbpwAwlt2XYdCY-9" target="9i-a_sATo2-7fXYlKeiW-29" edge="1">
          <mxGeometry relative="1" as="geometry" />
        </mxCell>
        <mxCell id="TZegP9xbpwAwlt2XYdCY-9" value="&lt;font style=&quot;font-size: 30px;&quot;&gt;Status&lt;/font&gt;" style="ellipse;whiteSpace=wrap;html=1;align=center;strokeColor=default;verticalAlign=middle;fontFamily=Helvetica;fontSize=11;fontColor=default;fillColor=default;" parent="1" vertex="1">
          <mxGeometry x="-718" y="610" width="180" height="60" as="geometry" />
        </mxCell>
        <mxCell id="XDjbEI3GDWVV4cX0tYsu-1" value="&lt;font style=&quot;font-size: 30px;&quot;&gt;Status&lt;/font&gt;" style="ellipse;whiteSpace=wrap;html=1;align=center;fontSize=30;" parent="1" vertex="1">
          <mxGeometry x="-1750" y="120" width="111" height="48" as="geometry" />
        </mxCell>
        <mxCell id="Rg7mxpU0Y_3yXDdKcXdl-1" value="Image" style="ellipse;whiteSpace=wrap;html=1;align=center;fontSize=30;" parent="1" vertex="1">
          <mxGeometry x="-860" y="-480" width="110" height="60" as="geometry" />
        </mxCell>
        <mxCell id="Rg7mxpU0Y_3yXDdKcXdl-2" style="edgeStyle=none;shape=connector;rounded=0;orthogonalLoop=1;jettySize=auto;html=1;labelBackgroundColor=default;strokeColor=default;align=center;verticalAlign=middle;fontFamily=Helvetica;fontSize=11;fontColor=default;endArrow=none;endFill=0;" parent="1" source="9i-a_sATo2-7fXYlKeiW-88" target="Rg7mxpU0Y_3yXDdKcXdl-1" edge="1">
          <mxGeometry relative="1" as="geometry">
            <mxPoint x="-855" y="-208" as="sourcePoint" />
            <mxPoint x="-877" y="-254" as="targetPoint" />
          </mxGeometry>
        </mxCell>
      </root>
    </mxGraphModel>
  </diagram>
  <diagram id="NzSyc3IylxAX8o6ZGBeA" name="Mapping-update">
    <mxGraphModel dx="4627" dy="1414" grid="1" gridSize="10" guides="1" tooltips="1" connect="1" arrows="1" fold="1" page="1" pageScale="1" pageWidth="827" pageHeight="1169" math="0" shadow="0">
      <root>
        <mxCell id="0" />
        <mxCell id="1" parent="0" />
        <mxCell id="VMM3hplXZCtEs3FosFRx-1" value="&lt;b style=&quot;font-size: 30px;&quot;&gt;&lt;u style=&quot;font-size: 30px;&quot;&gt;ID&lt;/u&gt;&lt;/b&gt;" style="rounded=0;whiteSpace=wrap;html=1;fontSize=30;" parent="1" vertex="1">
          <mxGeometry x="170" y="70" width="70" height="40" as="geometry" />
        </mxCell>
        <mxCell id="VMM3hplXZCtEs3FosFRx-2" value="&lt;b&gt;Book&lt;/b&gt;" style="text;html=1;strokeColor=none;fillColor=none;align=center;verticalAlign=middle;whiteSpace=wrap;rounded=0;fontSize=30;" parent="1" vertex="1">
          <mxGeometry x="180" y="30" width="60" height="30" as="geometry" />
        </mxCell>
        <mxCell id="VMM3hplXZCtEs3FosFRx-3" value="IBSN" style="rounded=0;whiteSpace=wrap;html=1;fontSize=30;" parent="1" vertex="1">
          <mxGeometry x="240" y="70" width="90" height="40" as="geometry" />
        </mxCell>
        <mxCell id="VMM3hplXZCtEs3FosFRx-4" value="Name" style="rounded=0;whiteSpace=wrap;html=1;fontSize=30;" parent="1" vertex="1">
          <mxGeometry x="330" y="70" width="90" height="40" as="geometry" />
        </mxCell>
        <mxCell id="VMM3hplXZCtEs3FosFRx-5" value="Price" style="rounded=0;whiteSpace=wrap;html=1;fontSize=30;" parent="1" vertex="1">
          <mxGeometry x="420" y="70" width="80" height="40" as="geometry" />
        </mxCell>
        <mxCell id="VMM3hplXZCtEs3FosFRx-6" value="Age restriction" style="rounded=0;whiteSpace=wrap;html=1;fontSize=30;" parent="1" vertex="1">
          <mxGeometry x="500" y="70" width="210" height="40" as="geometry" />
        </mxCell>
        <mxCell id="VMM3hplXZCtEs3FosFRx-7" value="&lt;b&gt;Edition&lt;/b&gt;" style="text;html=1;strokeColor=none;fillColor=none;align=center;verticalAlign=middle;whiteSpace=wrap;rounded=0;fontSize=30;" parent="1" vertex="1">
          <mxGeometry x="190" y="220" width="60" height="30" as="geometry" />
        </mxCell>
        <mxCell id="VMM3hplXZCtEs3FosFRx-8" value="&lt;b style=&quot;font-size: 30px;&quot;&gt;&lt;u style=&quot;font-size: 30px;&quot;&gt;ID&lt;/u&gt;&lt;/b&gt;" style="rounded=0;whiteSpace=wrap;html=1;fontSize=30;" parent="1" vertex="1">
          <mxGeometry x="170" y="270" width="220" height="40" as="geometry" />
        </mxCell>
        <mxCell id="VMM3hplXZCtEs3FosFRx-9" value="&lt;b style=&quot;font-size: 30px;&quot;&gt;&lt;u style=&quot;font-size: 30px;&quot;&gt;Number&lt;/u&gt;&lt;/b&gt;" style="rounded=0;whiteSpace=wrap;html=1;fontSize=30;" parent="1" vertex="1">
          <mxGeometry x="390" y="270" width="260" height="40" as="geometry" />
        </mxCell>
        <mxCell id="VMM3hplXZCtEs3FosFRx-10" value="Publisher name" style="rounded=0;whiteSpace=wrap;html=1;fontSize=30;" parent="1" vertex="1">
          <mxGeometry x="650" y="270" width="220" height="40" as="geometry" />
        </mxCell>
        <mxCell id="VMM3hplXZCtEs3FosFRx-11" value="Year of publish" style="rounded=0;whiteSpace=wrap;html=1;fontSize=30;" parent="1" vertex="1">
          <mxGeometry x="870" y="270" width="220" height="40" as="geometry" />
        </mxCell>
        <mxCell id="VMM3hplXZCtEs3FosFRx-12" value="" style="endArrow=classic;html=1;rounded=0;edgeStyle=orthogonalEdgeStyle;" parent="1" source="VMM3hplXZCtEs3FosFRx-8" target="VMM3hplXZCtEs3FosFRx-1" edge="1">
          <mxGeometry width="50" height="50" relative="1" as="geometry">
            <mxPoint x="170" y="310" as="sourcePoint" />
            <mxPoint x="170" y="110" as="targetPoint" />
            <Array as="points">
              <mxPoint x="90" y="280" />
              <mxPoint x="90" y="100" />
            </Array>
          </mxGeometry>
        </mxCell>
        <mxCell id="VMM3hplXZCtEs3FosFRx-13" value="&lt;b&gt;Hard copy&lt;/b&gt;" style="text;html=1;strokeColor=none;fillColor=none;align=center;verticalAlign=middle;whiteSpace=wrap;rounded=0;fontSize=30;" parent="1" vertex="1">
          <mxGeometry x="290" y="670" width="150" height="30" as="geometry" />
        </mxCell>
        <mxCell id="VMM3hplXZCtEs3FosFRx-14" value="&lt;b&gt;Soft copy&lt;/b&gt;" style="text;html=1;strokeColor=none;fillColor=none;align=center;verticalAlign=middle;whiteSpace=wrap;rounded=0;fontSize=30;" parent="1" vertex="1">
          <mxGeometry x="290" y="835" width="150" height="30" as="geometry" />
        </mxCell>
        <mxCell id="VMM3hplXZCtEs3FosFRx-15" value="&lt;b style=&quot;font-size: 30px;&quot;&gt;&lt;u style=&quot;font-size: 30px;&quot;&gt;ID&lt;/u&gt;&lt;/b&gt;" style="rounded=0;whiteSpace=wrap;html=1;fontSize=30;" parent="1" vertex="1">
          <mxGeometry x="290" y="700" width="70" height="40" as="geometry" />
        </mxCell>
        <mxCell id="VMM3hplXZCtEs3FosFRx-16" value="&lt;b style=&quot;font-size: 30px;&quot;&gt;&lt;u style=&quot;font-size: 30px;&quot;&gt;Number&lt;/u&gt;&lt;/b&gt;" style="rounded=0;whiteSpace=wrap;html=1;fontSize=30;" parent="1" vertex="1">
          <mxGeometry x="360" y="700" width="130" height="40" as="geometry" />
        </mxCell>
        <mxCell id="VMM3hplXZCtEs3FosFRx-17" value="&lt;b style=&quot;font-size: 30px;&quot;&gt;&lt;u style=&quot;font-size: 30px;&quot;&gt;ID&lt;/u&gt;&lt;/b&gt;" style="rounded=0;whiteSpace=wrap;html=1;fontSize=30;" parent="1" vertex="1">
          <mxGeometry x="290" y="870" width="70" height="40" as="geometry" />
        </mxCell>
        <mxCell id="VMM3hplXZCtEs3FosFRx-18" value="&lt;b style=&quot;font-size: 30px;&quot;&gt;&lt;u style=&quot;font-size: 30px;&quot;&gt;Number&lt;/u&gt;&lt;/b&gt;" style="rounded=0;whiteSpace=wrap;html=1;fontSize=30;" parent="1" vertex="1">
          <mxGeometry x="360" y="870" width="130" height="40" as="geometry" />
        </mxCell>
        <mxCell id="VMM3hplXZCtEs3FosFRx-19" value="Number in stock" style="rounded=0;whiteSpace=wrap;html=1;fontSize=30;" parent="1" vertex="1">
          <mxGeometry x="490" y="700" width="230" height="40" as="geometry" />
        </mxCell>
        <mxCell id="VMM3hplXZCtEs3FosFRx-20" value="File path" style="rounded=0;whiteSpace=wrap;html=1;fontSize=30;" parent="1" vertex="1">
          <mxGeometry x="490" y="870" width="170" height="40" as="geometry" />
        </mxCell>
        <mxCell id="VMM3hplXZCtEs3FosFRx-21" value="" style="endArrow=classic;html=1;rounded=0;edgeStyle=orthogonalEdgeStyle;" parent="1" source="VMM3hplXZCtEs3FosFRx-15" target="VMM3hplXZCtEs3FosFRx-8" edge="1">
          <mxGeometry width="50" height="50" relative="1" as="geometry">
            <mxPoint x="180" y="290" as="sourcePoint" />
            <mxPoint x="180" y="110" as="targetPoint" />
            <Array as="points">
              <mxPoint x="270" y="720" />
            </Array>
          </mxGeometry>
        </mxCell>
        <mxCell id="VMM3hplXZCtEs3FosFRx-22" value="" style="endArrow=classic;html=1;rounded=0;edgeStyle=orthogonalEdgeStyle;" parent="1" source="VMM3hplXZCtEs3FosFRx-17" target="VMM3hplXZCtEs3FosFRx-8" edge="1">
          <mxGeometry width="50" height="50" relative="1" as="geometry">
            <mxPoint x="180" y="490" as="sourcePoint" />
            <mxPoint x="240" y="320" as="targetPoint" />
            <Array as="points">
              <mxPoint x="250" y="900" />
            </Array>
          </mxGeometry>
        </mxCell>
        <mxCell id="VMM3hplXZCtEs3FosFRx-23" value="" style="endArrow=classic;html=1;rounded=0;edgeStyle=orthogonalEdgeStyle;" parent="1" source="VMM3hplXZCtEs3FosFRx-16" target="VMM3hplXZCtEs3FosFRx-9" edge="1">
          <mxGeometry width="50" height="50" relative="1" as="geometry">
            <mxPoint x="180" y="470" as="sourcePoint" />
            <mxPoint x="240" y="320" as="targetPoint" />
            <Array as="points">
              <mxPoint x="460" y="410" />
              <mxPoint x="460" y="410" />
            </Array>
          </mxGeometry>
        </mxCell>
        <mxCell id="VMM3hplXZCtEs3FosFRx-24" value="" style="endArrow=classic;html=1;rounded=0;edgeStyle=orthogonalEdgeStyle;" parent="1" source="VMM3hplXZCtEs3FosFRx-18" target="VMM3hplXZCtEs3FosFRx-9" edge="1">
          <mxGeometry width="50" height="50" relative="1" as="geometry">
            <mxPoint x="317.5" y="650" as="sourcePoint" />
            <mxPoint x="362.5" y="480" as="targetPoint" />
            <Array as="points">
              <mxPoint x="450" y="790" />
              <mxPoint x="750" y="790" />
              <mxPoint x="750" y="390" />
              <mxPoint x="590" y="390" />
            </Array>
          </mxGeometry>
        </mxCell>
        <mxCell id="VMM3hplXZCtEs3FosFRx-25" value="&lt;b&gt;Publisher&lt;/b&gt;" style="text;html=1;strokeColor=none;fillColor=none;align=center;verticalAlign=middle;whiteSpace=wrap;rounded=0;fontSize=30;" parent="1" vertex="1">
          <mxGeometry x="-800" y="50" width="150" height="30" as="geometry" />
        </mxCell>
        <mxCell id="VMM3hplXZCtEs3FosFRx-26" value="&lt;b&gt;Author&lt;/b&gt;" style="text;html=1;strokeColor=none;fillColor=none;align=center;verticalAlign=middle;whiteSpace=wrap;rounded=0;fontSize=30;" parent="1" vertex="1">
          <mxGeometry x="-800" y="180" width="103" height="30" as="geometry" />
        </mxCell>
        <mxCell id="VMM3hplXZCtEs3FosFRx-27" value="&lt;b&gt;Category&lt;/b&gt;" style="text;html=1;strokeColor=none;fillColor=none;align=center;verticalAlign=middle;whiteSpace=wrap;rounded=0;fontSize=30;" parent="1" vertex="1">
          <mxGeometry x="-800" y="320" width="140" height="30" as="geometry" />
        </mxCell>
        <mxCell id="VMM3hplXZCtEs3FosFRx-28" value="&lt;b style=&quot;font-size: 30px;&quot;&gt;&lt;u style=&quot;font-size: 30px;&quot;&gt;Name&lt;/u&gt;&lt;/b&gt;" style="rounded=0;whiteSpace=wrap;html=1;fontSize=30;" parent="1" vertex="1">
          <mxGeometry x="-800" y="360" width="100" height="40" as="geometry" />
        </mxCell>
        <mxCell id="VMM3hplXZCtEs3FosFRx-29" value="&lt;b style=&quot;font-size: 30px;&quot;&gt;&lt;u style=&quot;font-size: 30px;&quot;&gt;ID&lt;/u&gt;&lt;/b&gt;" style="rounded=0;whiteSpace=wrap;html=1;fontSize=30;" parent="1" vertex="1">
          <mxGeometry x="-800" y="220" width="100" height="40" as="geometry" />
        </mxCell>
        <mxCell id="VMM3hplXZCtEs3FosFRx-30" value="Name" style="rounded=0;whiteSpace=wrap;html=1;fontSize=30;" parent="1" vertex="1">
          <mxGeometry x="-700" y="220" width="90" height="40" as="geometry" />
        </mxCell>
        <mxCell id="VMM3hplXZCtEs3FosFRx-31" value="DoB" style="rounded=0;whiteSpace=wrap;html=1;fontSize=30;" parent="1" vertex="1">
          <mxGeometry x="-610" y="220" width="90" height="40" as="geometry" />
        </mxCell>
        <mxCell id="VMM3hplXZCtEs3FosFRx-32" value="Gender" style="rounded=0;whiteSpace=wrap;html=1;fontSize=30;" parent="1" vertex="1">
          <mxGeometry x="-520" y="220" width="110" height="40" as="geometry" />
        </mxCell>
        <mxCell id="VMM3hplXZCtEs3FosFRx-33" value="PoB" style="rounded=0;whiteSpace=wrap;html=1;fontSize=30;" parent="1" vertex="1">
          <mxGeometry x="-410" y="220" width="90" height="40" as="geometry" />
        </mxCell>
        <mxCell id="VMM3hplXZCtEs3FosFRx-34" value="&lt;b style=&quot;font-size: 30px;&quot;&gt;&lt;u style=&quot;font-size: 30px;&quot;&gt;Name&lt;/u&gt;&lt;/b&gt;" style="rounded=0;whiteSpace=wrap;html=1;fontSize=30;" parent="1" vertex="1">
          <mxGeometry x="-800" y="90" width="100" height="40" as="geometry" />
        </mxCell>
        <mxCell id="VMM3hplXZCtEs3FosFRx-35" value="" style="endArrow=classic;html=1;rounded=0;edgeStyle=orthogonalEdgeStyle;" parent="1" source="VMM3hplXZCtEs3FosFRx-10" target="VMM3hplXZCtEs3FosFRx-34" edge="1">
          <mxGeometry width="50" height="50" relative="1" as="geometry">
            <mxPoint x="20" y="470" as="sourcePoint" />
            <mxPoint x="70" y="420" as="targetPoint" />
            <Array as="points">
              <mxPoint x="730" y="170" />
              <mxPoint x="-130" y="170" />
              <mxPoint x="-130" y="110" />
            </Array>
          </mxGeometry>
        </mxCell>
        <mxCell id="VMM3hplXZCtEs3FosFRx-36" value="&lt;b&gt;Write&lt;/b&gt;" style="text;html=1;strokeColor=none;fillColor=none;align=center;verticalAlign=middle;whiteSpace=wrap;rounded=0;fontSize=30;" parent="1" vertex="1">
          <mxGeometry x="-600" y="480" width="80" height="30" as="geometry" />
        </mxCell>
        <mxCell id="VMM3hplXZCtEs3FosFRx-37" value="&lt;b&gt;Belong&lt;/b&gt;" style="text;html=1;strokeColor=none;fillColor=none;align=center;verticalAlign=middle;whiteSpace=wrap;rounded=0;fontSize=30;" parent="1" vertex="1">
          <mxGeometry x="-600" y="620" width="100" height="30" as="geometry" />
        </mxCell>
        <mxCell id="VMM3hplXZCtEs3FosFRx-38" value="&lt;b style=&quot;font-size: 30px;&quot;&gt;&lt;u style=&quot;font-size: 30px;&quot;&gt;Edition ID&lt;/u&gt;&lt;/b&gt;" style="rounded=0;whiteSpace=wrap;html=1;fontSize=30;" parent="1" vertex="1">
          <mxGeometry x="-600" y="515" width="160" height="40" as="geometry" />
        </mxCell>
        <mxCell id="VMM3hplXZCtEs3FosFRx-39" value="&lt;b style=&quot;font-size: 30px;&quot;&gt;&lt;u style=&quot;font-size: 30px;&quot;&gt;Edition number&lt;/u&gt;&lt;/b&gt;" style="rounded=0;whiteSpace=wrap;html=1;fontSize=30;" parent="1" vertex="1">
          <mxGeometry x="-440" y="515" width="230" height="40" as="geometry" />
        </mxCell>
        <mxCell id="VMM3hplXZCtEs3FosFRx-40" value="&lt;b&gt;&lt;u&gt;Author ID&lt;/u&gt;&lt;/b&gt;" style="rounded=0;whiteSpace=wrap;html=1;fontSize=30;" parent="1" vertex="1">
          <mxGeometry x="-210" y="515" width="160" height="40" as="geometry" />
        </mxCell>
        <mxCell id="VMM3hplXZCtEs3FosFRx-41" value="&lt;b style=&quot;font-size: 30px;&quot;&gt;&lt;u style=&quot;font-size: 30px;&quot;&gt;Book ID&lt;/u&gt;&lt;/b&gt;" style="rounded=0;whiteSpace=wrap;html=1;fontSize=30;" parent="1" vertex="1">
          <mxGeometry x="-370" y="660" width="160" height="40" as="geometry" />
        </mxCell>
        <mxCell id="VMM3hplXZCtEs3FosFRx-43" value="&lt;b style=&quot;font-size: 30px;&quot;&gt;&lt;u style=&quot;font-size: 30px;&quot;&gt;Category name&lt;/u&gt;&lt;/b&gt;" style="rounded=0;whiteSpace=wrap;html=1;fontSize=30;" parent="1" vertex="1">
          <mxGeometry x="-600" y="660" width="230" height="40" as="geometry" />
        </mxCell>
        <mxCell id="VMM3hplXZCtEs3FosFRx-44" value="" style="endArrow=classic;html=1;rounded=0;edgeStyle=orthogonalEdgeStyle;" parent="1" source="VMM3hplXZCtEs3FosFRx-43" target="VMM3hplXZCtEs3FosFRx-28" edge="1">
          <mxGeometry width="50" height="50" relative="1" as="geometry">
            <mxPoint x="20" y="470" as="sourcePoint" />
            <mxPoint x="70" y="420" as="targetPoint" />
            <Array as="points">
              <mxPoint x="-520" y="790" />
              <mxPoint x="-750" y="790" />
            </Array>
          </mxGeometry>
        </mxCell>
        <mxCell id="VMM3hplXZCtEs3FosFRx-45" value="" style="endArrow=classic;html=1;rounded=0;edgeStyle=orthogonalEdgeStyle;" parent="1" source="VMM3hplXZCtEs3FosFRx-40" target="VMM3hplXZCtEs3FosFRx-29" edge="1">
          <mxGeometry width="50" height="50" relative="1" as="geometry">
            <mxPoint x="-85" y="720" as="sourcePoint" />
            <mxPoint x="-740" y="410" as="targetPoint" />
            <Array as="points">
              <mxPoint x="-180" y="300" />
              <mxPoint x="-750" y="300" />
            </Array>
          </mxGeometry>
        </mxCell>
        <mxCell id="VMM3hplXZCtEs3FosFRx-46" value="" style="endArrow=classic;html=1;rounded=0;edgeStyle=orthogonalEdgeStyle;" parent="1" source="VMM3hplXZCtEs3FosFRx-39" target="VMM3hplXZCtEs3FosFRx-9" edge="1">
          <mxGeometry width="50" height="50" relative="1" as="geometry">
            <mxPoint x="-170" y="525" as="sourcePoint" />
            <mxPoint x="-740" y="270" as="targetPoint" />
            <Array as="points">
              <mxPoint x="-260" y="390" />
              <mxPoint x="410" y="390" />
            </Array>
          </mxGeometry>
        </mxCell>
        <mxCell id="VMM3hplXZCtEs3FosFRx-48" value="" style="endArrow=classic;html=1;rounded=0;edgeStyle=orthogonalEdgeStyle;" parent="1" source="VMM3hplXZCtEs3FosFRx-38" target="VMM3hplXZCtEs3FosFRx-8" edge="1">
          <mxGeometry width="50" height="50" relative="1" as="geometry">
            <mxPoint x="-250" y="525" as="sourcePoint" />
            <mxPoint x="330" y="320" as="targetPoint" />
            <Array as="points">
              <mxPoint x="-480" y="480" />
              <mxPoint x="200" y="480" />
            </Array>
          </mxGeometry>
        </mxCell>
        <mxCell id="VMM3hplXZCtEs3FosFRx-49" value="" style="endArrow=classic;html=1;rounded=0;edgeStyle=orthogonalEdgeStyle;" parent="1" source="VMM3hplXZCtEs3FosFRx-41" target="VMM3hplXZCtEs3FosFRx-1" edge="1">
          <mxGeometry width="50" height="50" relative="1" as="geometry">
            <mxPoint x="-440" y="525" as="sourcePoint" />
            <mxPoint x="220" y="320" as="targetPoint" />
            <Array as="points">
              <mxPoint x="-300" y="580" />
              <mxPoint x="-20" y="580" />
              <mxPoint x="-20" y="90" />
            </Array>
          </mxGeometry>
        </mxCell>
        <mxCell id="VMM3hplXZCtEs3FosFRx-50" value="&lt;b&gt;Customer&lt;/b&gt;" style="text;html=1;strokeColor=none;fillColor=none;align=center;verticalAlign=middle;whiteSpace=wrap;rounded=0;fontSize=30;" parent="1" vertex="1">
          <mxGeometry x="-770" y="2070" width="130" height="30" as="geometry" />
        </mxCell>
        <mxCell id="VMM3hplXZCtEs3FosFRx-51" value="&lt;b style=&quot;font-size: 30px;&quot;&gt;&lt;u style=&quot;font-size: 30px;&quot;&gt;ID&lt;/u&gt;&lt;/b&gt;" style="rounded=0;whiteSpace=wrap;html=1;fontSize=30;" parent="1" vertex="1">
          <mxGeometry x="-770" y="2110" width="150" height="40" as="geometry" />
        </mxCell>
        <mxCell id="VMM3hplXZCtEs3FosFRx-52" value="Name" style="rounded=0;whiteSpace=wrap;html=1;fontSize=30;" parent="1" vertex="1">
          <mxGeometry x="-620" y="2110" width="100" height="40" as="geometry" />
        </mxCell>
        <mxCell id="VMM3hplXZCtEs3FosFRx-53" value="Point" style="rounded=0;whiteSpace=wrap;html=1;fontSize=30;" parent="1" vertex="1">
          <mxGeometry x="-520" y="2110" width="80" height="40" as="geometry" />
        </mxCell>
        <mxCell id="VMM3hplXZCtEs3FosFRx-54" value="Card number" style="rounded=0;whiteSpace=wrap;html=1;fontSize=30;" parent="1" vertex="1">
          <mxGeometry x="-440" y="2110" width="180" height="40" as="geometry" />
        </mxCell>
        <mxCell id="VMM3hplXZCtEs3FosFRx-55" value="DoB" style="rounded=0;whiteSpace=wrap;html=1;fontSize=30;" parent="1" vertex="1">
          <mxGeometry x="-260" y="2110" width="90" height="40" as="geometry" />
        </mxCell>
        <mxCell id="VMM3hplXZCtEs3FosFRx-56" value="Address" style="rounded=0;whiteSpace=wrap;html=1;fontSize=30;" parent="1" vertex="1">
          <mxGeometry x="-170" y="2110" width="120" height="40" as="geometry" />
        </mxCell>
        <mxCell id="VMM3hplXZCtEs3FosFRx-57" value="Email" style="rounded=0;whiteSpace=wrap;html=1;fontSize=30;" parent="1" vertex="1">
          <mxGeometry x="-50" y="2110" width="90" height="40" as="geometry" />
        </mxCell>
        <mxCell id="VMM3hplXZCtEs3FosFRx-58" value="Phone" style="rounded=0;whiteSpace=wrap;html=1;fontSize=30;" parent="1" vertex="1">
          <mxGeometry x="40" y="2110" width="90" height="40" as="geometry" />
        </mxCell>
        <mxCell id="VMM3hplXZCtEs3FosFRx-59" value="Username" style="rounded=0;whiteSpace=wrap;html=1;fontSize=30;" parent="1" vertex="1">
          <mxGeometry x="130" y="2110" width="150" height="40" as="geometry" />
        </mxCell>
        <mxCell id="VMM3hplXZCtEs3FosFRx-60" value="Password" style="rounded=0;whiteSpace=wrap;html=1;fontSize=30;" parent="1" vertex="1">
          <mxGeometry x="280" y="2110" width="150" height="40" as="geometry" />
        </mxCell>
        <mxCell id="VMM3hplXZCtEs3FosFRx-61" value="&lt;b&gt;Rating&lt;/b&gt;" style="text;html=1;strokeColor=none;fillColor=none;align=center;verticalAlign=middle;whiteSpace=wrap;rounded=0;fontSize=30;" parent="1" vertex="1">
          <mxGeometry x="-765" y="1440" width="130" height="30" as="geometry" />
        </mxCell>
        <mxCell id="VMM3hplXZCtEs3FosFRx-62" value="&lt;b style=&quot;font-size: 30px;&quot;&gt;&lt;u style=&quot;font-size: 30px;&quot;&gt;Edition number&lt;/u&gt;&lt;/b&gt;" style="rounded=0;whiteSpace=wrap;html=1;fontSize=30;" parent="1" vertex="1">
          <mxGeometry x="-605" y="1480" width="230" height="40" as="geometry" />
        </mxCell>
        <mxCell id="VMM3hplXZCtEs3FosFRx-63" value="&lt;b&gt;&lt;u&gt;Customer ID&lt;/u&gt;&lt;/b&gt;" style="rounded=0;whiteSpace=wrap;html=1;fontSize=30;" parent="1" vertex="1">
          <mxGeometry x="-380" y="1480" width="195" height="40" as="geometry" />
        </mxCell>
        <mxCell id="VMM3hplXZCtEs3FosFRx-64" value="Star" style="rounded=0;whiteSpace=wrap;html=1;fontSize=30;" parent="1" vertex="1">
          <mxGeometry x="-185" y="1480" width="90" height="40" as="geometry" />
        </mxCell>
        <mxCell id="VMM3hplXZCtEs3FosFRx-65" value="&lt;b style=&quot;font-size: 30px;&quot;&gt;&lt;u style=&quot;font-size: 30px;&quot;&gt;Edition ID&lt;/u&gt;&lt;/b&gt;" style="rounded=0;whiteSpace=wrap;html=1;fontSize=30;" parent="1" vertex="1">
          <mxGeometry x="-770" y="1480" width="160" height="40" as="geometry" />
        </mxCell>
        <mxCell id="VMM3hplXZCtEs3FosFRx-66" value="&lt;b style=&quot;font-size: 30px;&quot;&gt;&lt;u style=&quot;font-size: 30px;&quot;&gt;Edition number&lt;/u&gt;&lt;/b&gt;" style="rounded=0;whiteSpace=wrap;html=1;fontSize=30;" parent="1" vertex="1">
          <mxGeometry x="-610" y="1480" width="230" height="40" as="geometry" />
        </mxCell>
        <mxCell id="VMM3hplXZCtEs3FosFRx-67" value="&lt;b&gt;&lt;u&gt;Customer ID&lt;/u&gt;&lt;/b&gt;" style="rounded=0;whiteSpace=wrap;html=1;fontSize=30;" parent="1" vertex="1">
          <mxGeometry x="-377.5" y="1630" width="195" height="40" as="geometry" />
        </mxCell>
        <mxCell id="VMM3hplXZCtEs3FosFRx-68" value="&lt;b style=&quot;font-size: 30px;&quot;&gt;&lt;u style=&quot;font-size: 30px;&quot;&gt;Edition ID&lt;/u&gt;&lt;/b&gt;" style="rounded=0;whiteSpace=wrap;html=1;fontSize=30;" parent="1" vertex="1">
          <mxGeometry x="-767.5" y="1630" width="160" height="40" as="geometry" />
        </mxCell>
        <mxCell id="VMM3hplXZCtEs3FosFRx-69" value="&lt;b style=&quot;font-size: 30px;&quot;&gt;&lt;u style=&quot;font-size: 30px;&quot;&gt;Edition number&lt;/u&gt;&lt;/b&gt;" style="rounded=0;whiteSpace=wrap;html=1;fontSize=30;" parent="1" vertex="1">
          <mxGeometry x="-607.5" y="1630" width="230" height="40" as="geometry" />
        </mxCell>
        <mxCell id="VMM3hplXZCtEs3FosFRx-73" value="&lt;b&gt;&lt;u&gt;Customer ID&lt;/u&gt;&lt;/b&gt;" style="rounded=0;whiteSpace=wrap;html=1;fontSize=30;" parent="1" vertex="1">
          <mxGeometry x="-377.5" y="1870" width="195" height="40" as="geometry" />
        </mxCell>
        <mxCell id="VMM3hplXZCtEs3FosFRx-74" value="&lt;b style=&quot;font-size: 30px;&quot;&gt;&lt;u style=&quot;font-size: 30px;&quot;&gt;Edition ID&lt;/u&gt;&lt;/b&gt;" style="rounded=0;whiteSpace=wrap;html=1;fontSize=30;" parent="1" vertex="1">
          <mxGeometry x="-767.5" y="1870" width="160" height="40" as="geometry" />
        </mxCell>
        <mxCell id="VMM3hplXZCtEs3FosFRx-75" value="&lt;b style=&quot;font-size: 30px;&quot;&gt;&lt;u style=&quot;font-size: 30px;&quot;&gt;Edition number&lt;/u&gt;&lt;/b&gt;" style="rounded=0;whiteSpace=wrap;html=1;fontSize=30;" parent="1" vertex="1">
          <mxGeometry x="-607.5" y="1870" width="230" height="40" as="geometry" />
        </mxCell>
        <mxCell id="VMM3hplXZCtEs3FosFRx-76" value="&lt;b&gt;Wishlist&lt;/b&gt;" style="text;html=1;strokeColor=none;fillColor=none;align=center;verticalAlign=middle;whiteSpace=wrap;rounded=0;fontSize=30;" parent="1" vertex="1">
          <mxGeometry x="-767.5" y="1590" width="130" height="30" as="geometry" />
        </mxCell>
        <mxCell id="VMM3hplXZCtEs3FosFRx-78" value="&lt;b&gt;Comment&lt;/b&gt;" style="text;html=1;strokeColor=none;fillColor=none;align=center;verticalAlign=middle;whiteSpace=wrap;rounded=0;fontSize=30;" parent="1" vertex="1">
          <mxGeometry x="-770" y="1830" width="150" height="30" as="geometry" />
        </mxCell>
        <mxCell id="VMM3hplXZCtEs3FosFRx-79" value="&lt;b&gt;Comment content&lt;/b&gt;" style="text;html=1;strokeColor=none;fillColor=none;align=center;verticalAlign=middle;whiteSpace=wrap;rounded=0;fontSize=30;" parent="1" vertex="1">
          <mxGeometry x="-770" y="1944" width="270" height="30" as="geometry" />
        </mxCell>
        <mxCell id="VMM3hplXZCtEs3FosFRx-80" value="&lt;b&gt;&lt;u&gt;Customer ID&lt;/u&gt;&lt;/b&gt;" style="rounded=0;whiteSpace=wrap;html=1;fontSize=30;" parent="1" vertex="1">
          <mxGeometry x="-377.5" y="1990" width="195" height="40" as="geometry" />
        </mxCell>
        <mxCell id="VMM3hplXZCtEs3FosFRx-81" value="&lt;b style=&quot;font-size: 30px;&quot;&gt;&lt;u style=&quot;font-size: 30px;&quot;&gt;Edition ID&lt;/u&gt;&lt;/b&gt;" style="rounded=0;whiteSpace=wrap;html=1;fontSize=30;" parent="1" vertex="1">
          <mxGeometry x="-767.5" y="1990" width="160" height="40" as="geometry" />
        </mxCell>
        <mxCell id="VMM3hplXZCtEs3FosFRx-82" value="&lt;b style=&quot;font-size: 30px;&quot;&gt;&lt;u style=&quot;font-size: 30px;&quot;&gt;Edition number&lt;/u&gt;&lt;/b&gt;" style="rounded=0;whiteSpace=wrap;html=1;fontSize=30;" parent="1" vertex="1">
          <mxGeometry x="-607.5" y="1990" width="230" height="40" as="geometry" />
        </mxCell>
        <mxCell id="VMM3hplXZCtEs3FosFRx-83" value="Time" style="rounded=0;whiteSpace=wrap;html=1;fontSize=30;" parent="1" vertex="1">
          <mxGeometry x="-182.5" y="1990" width="90" height="40" as="geometry" />
        </mxCell>
        <mxCell id="VMM3hplXZCtEs3FosFRx-84" value="Text" style="rounded=0;whiteSpace=wrap;html=1;fontSize=30;" parent="1" vertex="1">
          <mxGeometry x="-92.5" y="1990" width="90" height="40" as="geometry" />
        </mxCell>
        <mxCell id="VMM3hplXZCtEs3FosFRx-85" value="" style="endArrow=classic;html=1;rounded=0;edgeStyle=orthogonalEdgeStyle;" parent="1" source="VMM3hplXZCtEs3FosFRx-67" target="VMM3hplXZCtEs3FosFRx-51" edge="1">
          <mxGeometry width="50" height="50" relative="1" as="geometry">
            <mxPoint x="-70" y="1620" as="sourcePoint" />
            <mxPoint x="-20" y="1570" as="targetPoint" />
            <Array as="points">
              <mxPoint x="740" y="1650" />
              <mxPoint x="740" y="2210" />
              <mxPoint x="-670" y="2210" />
            </Array>
          </mxGeometry>
        </mxCell>
        <mxCell id="VMM3hplXZCtEs3FosFRx-87" value="" style="endArrow=classic;html=1;rounded=0;edgeStyle=orthogonalEdgeStyle;" parent="1" source="VMM3hplXZCtEs3FosFRx-63" target="VMM3hplXZCtEs3FosFRx-51" edge="1">
          <mxGeometry width="50" height="50" relative="1" as="geometry">
            <mxPoint x="-720" y="2160" as="sourcePoint" />
            <mxPoint x="-162" y="1590" as="targetPoint" />
            <Array as="points">
              <mxPoint x="-272" y="1430" />
              <mxPoint x="770" y="1430" />
              <mxPoint x="770" y="2290" />
              <mxPoint x="-740" y="2290" />
            </Array>
          </mxGeometry>
        </mxCell>
        <mxCell id="VMM3hplXZCtEs3FosFRx-88" value="" style="endArrow=classic;html=1;rounded=0;edgeStyle=orthogonalEdgeStyle;" parent="1" source="VMM3hplXZCtEs3FosFRx-73" target="VMM3hplXZCtEs3FosFRx-51" edge="1">
          <mxGeometry width="50" height="50" relative="1" as="geometry">
            <mxPoint x="-720" y="2160" as="sourcePoint" />
            <mxPoint x="-162" y="1590" as="targetPoint" />
            <Array as="points">
              <mxPoint x="710" y="1890" />
              <mxPoint x="710" y="2270" />
              <mxPoint x="-760" y="2270" />
            </Array>
          </mxGeometry>
        </mxCell>
        <mxCell id="VMM3hplXZCtEs3FosFRx-89" value="" style="endArrow=classic;html=1;rounded=0;edgeStyle=orthogonalEdgeStyle;" parent="1" source="VMM3hplXZCtEs3FosFRx-81" target="VMM3hplXZCtEs3FosFRx-74" edge="1">
          <mxGeometry width="50" height="50" relative="1" as="geometry">
            <mxPoint x="-80" y="1920" as="sourcePoint" />
            <mxPoint x="-30" y="1870" as="targetPoint" />
            <Array as="points">
              <mxPoint x="-800" y="2010" />
              <mxPoint x="-800" y="1900" />
            </Array>
          </mxGeometry>
        </mxCell>
        <mxCell id="VMM3hplXZCtEs3FosFRx-90" value="" style="endArrow=classic;html=1;rounded=0;edgeStyle=orthogonalEdgeStyle;" parent="1" source="VMM3hplXZCtEs3FosFRx-82" target="VMM3hplXZCtEs3FosFRx-75" edge="1">
          <mxGeometry width="50" height="50" relative="1" as="geometry">
            <mxPoint x="-757" y="2020" as="sourcePoint" />
            <mxPoint x="-757" y="1900" as="targetPoint" />
            <Array as="points">
              <mxPoint x="-450" y="1970" />
              <mxPoint x="-450" y="1970" />
            </Array>
          </mxGeometry>
        </mxCell>
        <mxCell id="VMM3hplXZCtEs3FosFRx-91" value="" style="endArrow=classic;html=1;rounded=0;edgeStyle=orthogonalEdgeStyle;" parent="1" source="VMM3hplXZCtEs3FosFRx-65" target="VMM3hplXZCtEs3FosFRx-8" edge="1">
          <mxGeometry width="50" height="50" relative="1" as="geometry">
            <mxPoint x="-680" y="1320" as="sourcePoint" />
            <mxPoint x="170" y="280" as="targetPoint" />
            <Array as="points">
              <mxPoint x="-830" y="1500" />
              <mxPoint x="-830" y="1370" />
              <mxPoint x="30" y="1370" />
              <mxPoint x="30" y="290" />
            </Array>
          </mxGeometry>
        </mxCell>
        <mxCell id="VMM3hplXZCtEs3FosFRx-92" value="" style="endArrow=classic;html=1;rounded=0;edgeStyle=orthogonalEdgeStyle;" parent="1" source="VMM3hplXZCtEs3FosFRx-68" target="VMM3hplXZCtEs3FosFRx-8" edge="1">
          <mxGeometry width="50" height="50" relative="1" as="geometry">
            <mxPoint x="-653" y="1300" as="sourcePoint" />
            <mxPoint x="198" y="320" as="targetPoint" />
            <Array as="points">
              <mxPoint x="-980" y="1650" />
              <mxPoint x="-980" y="1320" />
              <mxPoint x="100" y="1320" />
              <mxPoint x="100" y="300" />
            </Array>
          </mxGeometry>
        </mxCell>
        <mxCell id="VMM3hplXZCtEs3FosFRx-94" value="" style="endArrow=classic;html=1;rounded=0;edgeStyle=orthogonalEdgeStyle;" parent="1" source="VMM3hplXZCtEs3FosFRx-74" target="VMM3hplXZCtEs3FosFRx-8" edge="1">
          <mxGeometry width="50" height="50" relative="1" as="geometry">
            <mxPoint x="-654" y="1570" as="sourcePoint" />
            <mxPoint x="201" y="320" as="targetPoint" />
            <Array as="points">
              <mxPoint x="-890" y="1890" />
              <mxPoint x="-890" y="1270" />
              <mxPoint x="60" y="1270" />
              <mxPoint x="60" y="570" />
              <mxPoint x="350" y="570" />
            </Array>
          </mxGeometry>
        </mxCell>
        <mxCell id="VMM3hplXZCtEs3FosFRx-95" value="" style="endArrow=classic;html=1;rounded=0;edgeStyle=orthogonalEdgeStyle;" parent="1" source="VMM3hplXZCtEs3FosFRx-66" target="VMM3hplXZCtEs3FosFRx-9" edge="1">
          <mxGeometry width="50" height="50" relative="1" as="geometry">
            <mxPoint x="100" y="1070" as="sourcePoint" />
            <mxPoint x="150" y="1020" as="targetPoint" />
            <Array as="points">
              <mxPoint x="-520" y="1240" />
              <mxPoint x="780" y="1240" />
              <mxPoint x="780" y="370" />
              <mxPoint x="620" y="370" />
            </Array>
          </mxGeometry>
        </mxCell>
        <mxCell id="VMM3hplXZCtEs3FosFRx-96" value="" style="endArrow=classic;html=1;rounded=0;edgeStyle=orthogonalEdgeStyle;" parent="1" source="VMM3hplXZCtEs3FosFRx-69" target="VMM3hplXZCtEs3FosFRx-9" edge="1">
          <mxGeometry width="50" height="50" relative="1" as="geometry">
            <mxPoint x="-460" y="1300" as="sourcePoint" />
            <mxPoint x="300" y="320" as="targetPoint" />
            <Array as="points">
              <mxPoint x="-482" y="1600" />
              <mxPoint x="890" y="1600" />
              <mxPoint x="890" y="460" />
              <mxPoint x="510" y="460" />
            </Array>
          </mxGeometry>
        </mxCell>
        <mxCell id="VMM3hplXZCtEs3FosFRx-98" value="" style="endArrow=classic;html=1;rounded=0;edgeStyle=orthogonalEdgeStyle;" parent="1" source="VMM3hplXZCtEs3FosFRx-75" target="VMM3hplXZCtEs3FosFRx-9" edge="1">
          <mxGeometry width="50" height="50" relative="1" as="geometry">
            <mxPoint x="-460" y="1570" as="sourcePoint" />
            <mxPoint x="303" y="320" as="targetPoint" />
            <Array as="points">
              <mxPoint x="-482" y="1830" />
              <mxPoint x="850" y="1830" />
              <mxPoint x="850" y="490" />
              <mxPoint x="490" y="490" />
            </Array>
          </mxGeometry>
        </mxCell>
        <mxCell id="VMM3hplXZCtEs3FosFRx-99" value="&lt;b&gt;Order&lt;/b&gt;" style="text;html=1;strokeColor=none;fillColor=none;align=center;verticalAlign=middle;whiteSpace=wrap;rounded=0;fontSize=30;" parent="1" vertex="1">
          <mxGeometry x="920" y="1220" width="90" height="30" as="geometry" />
        </mxCell>
        <mxCell id="VMM3hplXZCtEs3FosFRx-100" value="&lt;b style=&quot;font-size: 30px;&quot;&gt;&lt;u style=&quot;font-size: 30px;&quot;&gt;ID&lt;/u&gt;&lt;/b&gt;" style="rounded=0;whiteSpace=wrap;html=1;fontSize=30;" parent="1" vertex="1">
          <mxGeometry x="920" y="1260" width="70" height="40" as="geometry" />
        </mxCell>
        <mxCell id="VMM3hplXZCtEs3FosFRx-101" value="Time" style="rounded=0;whiteSpace=wrap;html=1;fontSize=30;" parent="1" vertex="1">
          <mxGeometry x="990" y="1260" width="90" height="40" as="geometry" />
        </mxCell>
        <mxCell id="VMM3hplXZCtEs3FosFRx-102" value="Total cost" style="rounded=0;whiteSpace=wrap;html=1;fontSize=30;" parent="1" vertex="1">
          <mxGeometry x="1081" y="1260" width="130" height="40" as="geometry" />
        </mxCell>
        <mxCell id="VMM3hplXZCtEs3FosFRx-103" value="Total discount" style="rounded=0;whiteSpace=wrap;html=1;fontSize=30;" parent="1" vertex="1">
          <mxGeometry x="1211" y="1260" width="200" height="40" as="geometry" />
        </mxCell>
        <mxCell id="VMM3hplXZCtEs3FosFRx-104" value="&lt;b&gt;Discount&lt;/b&gt;" style="text;html=1;strokeColor=none;fillColor=none;align=center;verticalAlign=middle;whiteSpace=wrap;rounded=0;fontSize=30;" parent="1" vertex="1">
          <mxGeometry x="1080" y="1650" width="90" height="30" as="geometry" />
        </mxCell>
        <mxCell id="VMM3hplXZCtEs3FosFRx-105" value="&lt;b&gt;Customer discount&lt;/b&gt;" style="text;html=1;strokeColor=none;fillColor=none;align=center;verticalAlign=middle;whiteSpace=wrap;rounded=0;fontSize=30;" parent="1" vertex="1">
          <mxGeometry x="1060" y="1919" width="280" height="30" as="geometry" />
        </mxCell>
        <mxCell id="VMM3hplXZCtEs3FosFRx-106" value="&lt;b&gt;Event discount&lt;/b&gt;" style="text;html=1;strokeColor=none;fillColor=none;align=center;verticalAlign=middle;whiteSpace=wrap;rounded=0;fontSize=30;" parent="1" vertex="1">
          <mxGeometry x="1060" y="1780" width="240" height="30" as="geometry" />
        </mxCell>
        <mxCell id="VMM3hplXZCtEs3FosFRx-107" value="&lt;b style=&quot;font-size: 30px;&quot;&gt;&lt;u style=&quot;font-size: 30px;&quot;&gt;ID&lt;/u&gt;&lt;/b&gt;" style="rounded=0;whiteSpace=wrap;html=1;fontSize=30;" parent="1" vertex="1">
          <mxGeometry x="1060" y="1690" width="70" height="40" as="geometry" />
        </mxCell>
        <mxCell id="VMM3hplXZCtEs3FosFRx-108" value="&lt;b style=&quot;font-size: 30px;&quot;&gt;&lt;u style=&quot;font-size: 30px;&quot;&gt;ID&lt;/u&gt;&lt;/b&gt;" style="rounded=0;whiteSpace=wrap;html=1;fontSize=30;" parent="1" vertex="1">
          <mxGeometry x="1060" y="1959" width="70" height="40" as="geometry" />
        </mxCell>
        <mxCell id="VMM3hplXZCtEs3FosFRx-109" value="&lt;b style=&quot;font-size: 30px;&quot;&gt;&lt;u style=&quot;font-size: 30px;&quot;&gt;ID&lt;/u&gt;&lt;/b&gt;" style="rounded=0;whiteSpace=wrap;html=1;fontSize=30;" parent="1" vertex="1">
          <mxGeometry x="1060" y="1830" width="70" height="40" as="geometry" />
        </mxCell>
        <mxCell id="VMM3hplXZCtEs3FosFRx-111" value="Discount" style="rounded=0;whiteSpace=wrap;html=1;fontSize=30;" parent="1" vertex="1">
          <mxGeometry x="1130" y="1830" width="129" height="40" as="geometry" />
        </mxCell>
        <mxCell id="VMM3hplXZCtEs3FosFRx-112" value="Start date" style="rounded=0;whiteSpace=wrap;html=1;fontSize=30;" parent="1" vertex="1">
          <mxGeometry x="1259" y="1830" width="140" height="40" as="geometry" />
        </mxCell>
        <mxCell id="VMM3hplXZCtEs3FosFRx-113" value="End date" style="rounded=0;whiteSpace=wrap;html=1;fontSize=30;" parent="1" vertex="1">
          <mxGeometry x="1399" y="1830" width="130" height="40" as="geometry" />
        </mxCell>
        <mxCell id="VMM3hplXZCtEs3FosFRx-114" value="&lt;b&gt;Referrer discount&lt;/b&gt;" style="text;html=1;strokeColor=none;fillColor=none;align=left;verticalAlign=middle;whiteSpace=wrap;rounded=0;fontSize=30;" parent="1" vertex="1">
          <mxGeometry x="1060" y="2060" width="440" height="30" as="geometry" />
        </mxCell>
        <mxCell id="VMM3hplXZCtEs3FosFRx-115" value="&lt;b style=&quot;font-size: 30px;&quot;&gt;&lt;u style=&quot;font-size: 30px;&quot;&gt;ID&lt;/u&gt;&lt;/b&gt;" style="rounded=0;whiteSpace=wrap;html=1;fontSize=30;" parent="1" vertex="1">
          <mxGeometry x="1070" y="2100" width="70" height="40" as="geometry" />
        </mxCell>
        <mxCell id="VMM3hplXZCtEs3FosFRx-116" value="Number of people" style="rounded=0;whiteSpace=wrap;html=1;fontSize=30;" parent="1" vertex="1">
          <mxGeometry x="1140" y="2100" width="270" height="40" as="geometry" />
        </mxCell>
        <mxCell id="VMM3hplXZCtEs3FosFRx-117" value="Discount" style="rounded=0;whiteSpace=wrap;html=1;fontSize=30;" parent="1" vertex="1">
          <mxGeometry x="1411" y="2100" width="129" height="40" as="geometry" />
        </mxCell>
        <mxCell id="VMM3hplXZCtEs3FosFRx-119" value="" style="endArrow=classic;html=1;rounded=0;edgeStyle=orthogonalEdgeStyle;" parent="1" source="VMM3hplXZCtEs3FosFRx-108" target="VMM3hplXZCtEs3FosFRx-107" edge="1">
          <mxGeometry width="50" height="50" relative="1" as="geometry">
            <mxPoint x="1080" y="2130" as="sourcePoint" />
            <mxPoint x="1070" y="1989" as="targetPoint" />
            <Array as="points">
              <mxPoint x="1000" y="1970" />
              <mxPoint x="1000" y="1700" />
            </Array>
          </mxGeometry>
        </mxCell>
        <mxCell id="VMM3hplXZCtEs3FosFRx-120" value="" style="endArrow=classic;html=1;rounded=0;edgeStyle=orthogonalEdgeStyle;" parent="1" source="VMM3hplXZCtEs3FosFRx-109" target="VMM3hplXZCtEs3FosFRx-107" edge="1">
          <mxGeometry width="50" height="50" relative="1" as="geometry">
            <mxPoint x="1070" y="1980" as="sourcePoint" />
            <mxPoint x="1070" y="1710" as="targetPoint" />
            <Array as="points">
              <mxPoint x="1010" y="1850" />
              <mxPoint x="1010" y="1720" />
            </Array>
          </mxGeometry>
        </mxCell>
        <mxCell id="VMM3hplXZCtEs3FosFRx-121" value="&lt;b&gt;Apply&lt;/b&gt;" style="text;html=1;strokeColor=none;fillColor=none;align=center;verticalAlign=middle;whiteSpace=wrap;rounded=0;fontSize=30;" parent="1" vertex="1">
          <mxGeometry x="1080" y="1430" width="90" height="30" as="geometry" />
        </mxCell>
        <mxCell id="VMM3hplXZCtEs3FosFRx-122" value="&lt;b style=&quot;font-size: 30px;&quot;&gt;&lt;u style=&quot;font-size: 30px;&quot;&gt;Order ID&lt;/u&gt;&lt;/b&gt;" style="rounded=0;whiteSpace=wrap;html=1;fontSize=30;" parent="1" vertex="1">
          <mxGeometry x="1080" y="1470" width="140" height="40" as="geometry" />
        </mxCell>
        <mxCell id="VMM3hplXZCtEs3FosFRx-123" value="&lt;b style=&quot;font-size: 30px;&quot;&gt;&lt;u style=&quot;font-size: 30px;&quot;&gt;Discount ID&lt;/u&gt;&lt;/b&gt;" style="rounded=0;whiteSpace=wrap;html=1;fontSize=30;" parent="1" vertex="1">
          <mxGeometry x="1220" y="1470" width="180" height="40" as="geometry" />
        </mxCell>
        <mxCell id="VMM3hplXZCtEs3FosFRx-124" value="" style="endArrow=classic;html=1;rounded=0;edgeStyle=orthogonalEdgeStyle;" parent="1" source="VMM3hplXZCtEs3FosFRx-123" target="VMM3hplXZCtEs3FosFRx-107" edge="1">
          <mxGeometry width="50" height="50" relative="1" as="geometry">
            <mxPoint x="1370" y="1700" as="sourcePoint" />
            <mxPoint x="990" y="1550" as="targetPoint" />
            <Array as="points">
              <mxPoint x="1310" y="1710" />
            </Array>
          </mxGeometry>
        </mxCell>
        <mxCell id="VMM3hplXZCtEs3FosFRx-125" value="" style="endArrow=classic;html=1;rounded=0;edgeStyle=orthogonalEdgeStyle;" parent="1" source="VMM3hplXZCtEs3FosFRx-122" target="VMM3hplXZCtEs3FosFRx-100" edge="1">
          <mxGeometry width="50" height="50" relative="1" as="geometry">
            <mxPoint x="1320" y="1520" as="sourcePoint" />
            <mxPoint x="1140" y="1720" as="targetPoint" />
            <Array as="points">
              <mxPoint x="930" y="1490" />
            </Array>
          </mxGeometry>
        </mxCell>
        <mxCell id="VMM3hplXZCtEs3FosFRx-126" value="&lt;b&gt;File order&lt;/b&gt;" style="text;html=1;strokeColor=none;fillColor=none;align=center;verticalAlign=middle;whiteSpace=wrap;rounded=0;fontSize=30;" parent="1" vertex="1">
          <mxGeometry x="1140" y="835" width="160" height="30" as="geometry" />
        </mxCell>
        <mxCell id="VMM3hplXZCtEs3FosFRx-127" value="&lt;b&gt;Physical order&lt;/b&gt;" style="text;html=1;strokeColor=none;fillColor=none;align=center;verticalAlign=middle;whiteSpace=wrap;rounded=0;fontSize=30;" parent="1" vertex="1">
          <mxGeometry x="1128" y="980" width="225" height="30" as="geometry" />
        </mxCell>
        <mxCell id="VMM3hplXZCtEs3FosFRx-128" value="&lt;b style=&quot;font-size: 30px;&quot;&gt;&lt;u style=&quot;font-size: 30px;&quot;&gt;ID&lt;/u&gt;&lt;/b&gt;" style="rounded=0;whiteSpace=wrap;html=1;fontSize=30;" parent="1" vertex="1">
          <mxGeometry x="1140" y="1030" width="70" height="40" as="geometry" />
        </mxCell>
        <mxCell id="VMM3hplXZCtEs3FosFRx-129" value="&lt;b style=&quot;font-size: 30px;&quot;&gt;&lt;u style=&quot;font-size: 30px;&quot;&gt;ID&lt;/u&gt;&lt;/b&gt;" style="rounded=0;whiteSpace=wrap;html=1;fontSize=30;" parent="1" vertex="1">
          <mxGeometry x="1140" y="880" width="70" height="40" as="geometry" />
        </mxCell>
        <mxCell id="VMM3hplXZCtEs3FosFRx-130" value="Destination address" style="rounded=0;whiteSpace=wrap;html=1;fontSize=30;" parent="1" vertex="1">
          <mxGeometry x="1206" y="1030" width="274" height="40" as="geometry" />
        </mxCell>
        <mxCell id="VMM3hplXZCtEs3FosFRx-131" value="" style="endArrow=classic;html=1;rounded=0;edgeStyle=orthogonalEdgeStyle;" parent="1" source="VMM3hplXZCtEs3FosFRx-128" target="VMM3hplXZCtEs3FosFRx-100" edge="1">
          <mxGeometry width="50" height="50" relative="1" as="geometry">
            <mxPoint x="710" y="930" as="sourcePoint" />
            <mxPoint x="760" y="880" as="targetPoint" />
            <Array as="points">
              <mxPoint x="1175" y="1120" />
              <mxPoint x="1760" y="1120" />
              <mxPoint x="1760" y="1350" />
              <mxPoint x="980" y="1350" />
            </Array>
          </mxGeometry>
        </mxCell>
        <mxCell id="VMM3hplXZCtEs3FosFRx-132" value="" style="endArrow=classic;html=1;rounded=0;edgeStyle=orthogonalEdgeStyle;" parent="1" source="VMM3hplXZCtEs3FosFRx-129" target="VMM3hplXZCtEs3FosFRx-100" edge="1">
          <mxGeometry width="50" height="50" relative="1" as="geometry">
            <mxPoint x="1180" y="1080" as="sourcePoint" />
            <mxPoint x="1130" y="1290" as="targetPoint" />
            <Array as="points">
              <mxPoint x="1830" y="900" />
              <mxPoint x="1830" y="1380" />
              <mxPoint x="960" y="1380" />
            </Array>
          </mxGeometry>
        </mxCell>
        <mxCell id="VMM3hplXZCtEs3FosFRx-133" value="&lt;b&gt;File order contain&lt;/b&gt;" style="text;html=1;strokeColor=none;fillColor=none;align=center;verticalAlign=middle;whiteSpace=wrap;rounded=0;fontSize=30;" parent="1" vertex="1">
          <mxGeometry x="1139" y="410" width="292" height="30" as="geometry" />
        </mxCell>
        <mxCell id="VMM3hplXZCtEs3FosFRx-134" value="&lt;b&gt;Physical order contain&lt;/b&gt;" style="text;html=1;strokeColor=none;fillColor=none;align=center;verticalAlign=middle;whiteSpace=wrap;rounded=0;fontSize=30;" parent="1" vertex="1">
          <mxGeometry x="1120" y="570" width="340" height="30" as="geometry" />
        </mxCell>
        <mxCell id="VMM3hplXZCtEs3FosFRx-135" value="Amount" style="rounded=0;whiteSpace=wrap;html=1;fontSize=30;" parent="1" vertex="1">
          <mxGeometry x="1520" y="610" width="130" height="40" as="geometry" />
        </mxCell>
        <mxCell id="VMM3hplXZCtEs3FosFRx-136" value="&lt;b style=&quot;font-size: 30px;&quot;&gt;&lt;u style=&quot;font-size: 30px;&quot;&gt;Order ID&lt;/u&gt;&lt;/b&gt;" style="rounded=0;whiteSpace=wrap;html=1;fontSize=30;" parent="1" vertex="1">
          <mxGeometry x="1421" y="460" width="150" height="40" as="geometry" />
        </mxCell>
        <mxCell id="VMM3hplXZCtEs3FosFRx-137" value="&lt;b style=&quot;font-size: 30px;&quot;&gt;&lt;u style=&quot;font-size: 30px;&quot;&gt;Edition ID&lt;/u&gt;&lt;/b&gt;" style="rounded=0;whiteSpace=wrap;html=1;fontSize=30;" parent="1" vertex="1">
          <mxGeometry x="1030" y="460" width="160" height="40" as="geometry" />
        </mxCell>
        <mxCell id="VMM3hplXZCtEs3FosFRx-138" value="&lt;b style=&quot;border-color: var(--border-color);&quot;&gt;&lt;u style=&quot;border-color: var(--border-color);&quot;&gt;Edition n&lt;/u&gt;&lt;/b&gt;&lt;b style=&quot;font-size: 30px;&quot;&gt;&lt;u style=&quot;font-size: 30px;&quot;&gt;umber&lt;/u&gt;&lt;/b&gt;" style="rounded=0;whiteSpace=wrap;html=1;fontSize=30;" parent="1" vertex="1">
          <mxGeometry x="1190" y="460" width="230" height="40" as="geometry" />
        </mxCell>
        <mxCell id="VMM3hplXZCtEs3FosFRx-139" style="edgeStyle=orthogonalEdgeStyle;rounded=0;orthogonalLoop=1;jettySize=auto;html=1;exitX=0.5;exitY=1;exitDx=0;exitDy=0;" parent="1" source="VMM3hplXZCtEs3FosFRx-133" target="VMM3hplXZCtEs3FosFRx-133" edge="1">
          <mxGeometry relative="1" as="geometry" />
        </mxCell>
        <mxCell id="VMM3hplXZCtEs3FosFRx-140" value="&lt;b style=&quot;font-size: 30px;&quot;&gt;&lt;u style=&quot;font-size: 30px;&quot;&gt;Order ID&lt;/u&gt;&lt;/b&gt;" style="rounded=0;whiteSpace=wrap;html=1;fontSize=30;" parent="1" vertex="1">
          <mxGeometry x="1370" y="610" width="150" height="40" as="geometry" />
        </mxCell>
        <mxCell id="VMM3hplXZCtEs3FosFRx-141" value="&lt;b style=&quot;font-size: 30px;&quot;&gt;&lt;u style=&quot;font-size: 30px;&quot;&gt;Edition ID&lt;/u&gt;&lt;/b&gt;" style="rounded=0;whiteSpace=wrap;html=1;fontSize=30;" parent="1" vertex="1">
          <mxGeometry x="979" y="610" width="160" height="40" as="geometry" />
        </mxCell>
        <mxCell id="VMM3hplXZCtEs3FosFRx-142" value="&lt;b style=&quot;border-color: var(--border-color);&quot;&gt;&lt;u style=&quot;border-color: var(--border-color);&quot;&gt;Edition n&lt;/u&gt;&lt;/b&gt;&lt;b style=&quot;font-size: 30px;&quot;&gt;&lt;u style=&quot;font-size: 30px;&quot;&gt;umber&lt;/u&gt;&lt;/b&gt;" style="rounded=0;whiteSpace=wrap;html=1;fontSize=30;" parent="1" vertex="1">
          <mxGeometry x="1139" y="610" width="230" height="40" as="geometry" />
        </mxCell>
        <mxCell id="VMM3hplXZCtEs3FosFRx-143" value="" style="endArrow=classic;html=1;rounded=0;edgeStyle=orthogonalEdgeStyle;" parent="1" source="VMM3hplXZCtEs3FosFRx-141" target="VMM3hplXZCtEs3FosFRx-15" edge="1">
          <mxGeometry width="50" height="50" relative="1" as="geometry">
            <mxPoint x="600" y="820" as="sourcePoint" />
            <mxPoint x="650" y="770" as="targetPoint" />
            <Array as="points">
              <mxPoint x="1059" y="820" />
              <mxPoint x="325" y="820" />
            </Array>
          </mxGeometry>
        </mxCell>
        <mxCell id="VMM3hplXZCtEs3FosFRx-144" value="" style="endArrow=classic;html=1;rounded=0;edgeStyle=orthogonalEdgeStyle;" parent="1" source="VMM3hplXZCtEs3FosFRx-142" target="VMM3hplXZCtEs3FosFRx-16" edge="1">
          <mxGeometry width="50" height="50" relative="1" as="geometry">
            <mxPoint x="989" y="650" as="sourcePoint" />
            <mxPoint x="370" y="726" as="targetPoint" />
            <Array as="points">
              <mxPoint x="1254" y="770" />
              <mxPoint x="425" y="770" />
            </Array>
          </mxGeometry>
        </mxCell>
        <mxCell id="VMM3hplXZCtEs3FosFRx-145" value="" style="endArrow=classic;html=1;rounded=0;edgeStyle=orthogonalEdgeStyle;" parent="1" source="VMM3hplXZCtEs3FosFRx-140" target="VMM3hplXZCtEs3FosFRx-128" edge="1">
          <mxGeometry width="50" height="50" relative="1" as="geometry">
            <mxPoint x="1149" y="652" as="sourcePoint" />
            <mxPoint x="500" y="723" as="targetPoint" />
            <Array as="points">
              <mxPoint x="1445" y="800" />
              <mxPoint x="1100" y="800" />
              <mxPoint x="1100" y="1050" />
            </Array>
          </mxGeometry>
        </mxCell>
        <mxCell id="VMM3hplXZCtEs3FosFRx-146" value="" style="endArrow=classic;html=1;rounded=0;edgeStyle=orthogonalEdgeStyle;" parent="1" source="VMM3hplXZCtEs3FosFRx-137" target="VMM3hplXZCtEs3FosFRx-17" edge="1">
          <mxGeometry width="50" height="50" relative="1" as="geometry">
            <mxPoint x="1069" y="660" as="sourcePoint" />
            <mxPoint x="335" y="750" as="targetPoint" />
            <Array as="points">
              <mxPoint x="920" y="480" />
              <mxPoint x="920" y="950" />
              <mxPoint x="335" y="950" />
            </Array>
          </mxGeometry>
        </mxCell>
        <mxCell id="VMM3hplXZCtEs3FosFRx-147" value="" style="endArrow=classic;html=1;rounded=0;edgeStyle=orthogonalEdgeStyle;" parent="1" source="VMM3hplXZCtEs3FosFRx-138" target="VMM3hplXZCtEs3FosFRx-18" edge="1">
          <mxGeometry width="50" height="50" relative="1" as="geometry">
            <mxPoint x="600" y="820" as="sourcePoint" />
            <mxPoint x="650" y="770" as="targetPoint" />
            <Array as="points">
              <mxPoint x="1305" y="530" />
              <mxPoint x="950" y="530" />
              <mxPoint x="950" y="990" />
              <mxPoint x="425" y="990" />
            </Array>
          </mxGeometry>
        </mxCell>
        <mxCell id="VMM3hplXZCtEs3FosFRx-148" value="" style="endArrow=classic;html=1;rounded=0;edgeStyle=orthogonalEdgeStyle;" parent="1" source="VMM3hplXZCtEs3FosFRx-136" target="VMM3hplXZCtEs3FosFRx-129" edge="1">
          <mxGeometry width="50" height="50" relative="1" as="geometry">
            <mxPoint x="600" y="820" as="sourcePoint" />
            <mxPoint x="650" y="770" as="targetPoint" />
            <Array as="points">
              <mxPoint x="1496" y="560" />
              <mxPoint x="970" y="560" />
              <mxPoint x="970" y="900" />
            </Array>
          </mxGeometry>
        </mxCell>
        <mxCell id="VMM3hplXZCtEs3FosFRx-149" value="Customer ID" style="rounded=0;whiteSpace=wrap;html=1;fontSize=30;" parent="1" vertex="1">
          <mxGeometry x="1411" y="1260" width="179" height="40" as="geometry" />
        </mxCell>
        <mxCell id="VMM3hplXZCtEs3FosFRx-150" value="" style="endArrow=classic;html=1;rounded=0;edgeStyle=orthogonalEdgeStyle;" parent="1" source="VMM3hplXZCtEs3FosFRx-149" target="VMM3hplXZCtEs3FosFRx-51" edge="1">
          <mxGeometry width="50" height="50" relative="1" as="geometry">
            <mxPoint x="780" y="1560" as="sourcePoint" />
            <mxPoint x="830" y="1510" as="targetPoint" />
            <Array as="points">
              <mxPoint x="1501" y="1200" />
              <mxPoint x="800" y="1200" />
              <mxPoint x="800" y="2250" />
              <mxPoint x="-690" y="2250" />
            </Array>
          </mxGeometry>
        </mxCell>
        <mxCell id="7HoKJ1XEYFvkmXeW1y6D-1" value="Apply for all" style="rounded=0;whiteSpace=wrap;html=1;fontSize=30;" parent="1" vertex="1">
          <mxGeometry x="1529" y="1830" width="171" height="40" as="geometry" />
        </mxCell>
        <mxCell id="WhiNVf79CtpoCNr422ar-1" value="&lt;b&gt;Apply for&lt;/b&gt;" style="text;html=1;strokeColor=none;fillColor=none;align=center;verticalAlign=middle;whiteSpace=wrap;rounded=0;fontSize=30;" parent="1" vertex="1">
          <mxGeometry x="1740" y="1440" width="160" height="30" as="geometry" />
        </mxCell>
        <mxCell id="WhiNVf79CtpoCNr422ar-2" value="&lt;b style=&quot;font-size: 30px;&quot;&gt;&lt;u style=&quot;font-size: 30px;&quot;&gt;Event ID&lt;/u&gt;&lt;/b&gt;" style="rounded=0;whiteSpace=wrap;html=1;fontSize=30;" parent="1" vertex="1">
          <mxGeometry x="1760" y="1490" width="140" height="40" as="geometry" />
        </mxCell>
        <mxCell id="WhiNVf79CtpoCNr422ar-3" value="&lt;b style=&quot;font-size: 30px;&quot;&gt;&lt;u style=&quot;font-size: 30px;&quot;&gt;Book ID&lt;/u&gt;&lt;/b&gt;" style="rounded=0;whiteSpace=wrap;html=1;fontSize=30;" parent="1" vertex="1">
          <mxGeometry x="1900" y="1490" width="140" height="40" as="geometry" />
        </mxCell>
        <mxCell id="WhiNVf79CtpoCNr422ar-4" value="" style="endArrow=classic;html=1;rounded=0;edgeStyle=orthogonalEdgeStyle;" parent="1" source="WhiNVf79CtpoCNr422ar-3" target="VMM3hplXZCtEs3FosFRx-1" edge="1">
          <mxGeometry width="50" height="50" relative="1" as="geometry">
            <mxPoint x="800" y="860" as="sourcePoint" />
            <mxPoint x="850" y="810" as="targetPoint" />
            <Array as="points">
              <mxPoint x="1970" y="140" />
              <mxPoint x="205" y="140" />
            </Array>
          </mxGeometry>
        </mxCell>
        <mxCell id="WhiNVf79CtpoCNr422ar-5" value="" style="endArrow=classic;html=1;rounded=0;edgeStyle=orthogonalEdgeStyle;" parent="1" source="WhiNVf79CtpoCNr422ar-2" target="VMM3hplXZCtEs3FosFRx-109" edge="1">
          <mxGeometry width="50" height="50" relative="1" as="geometry">
            <mxPoint x="1080" y="1140" as="sourcePoint" />
            <mxPoint x="1130" y="1090" as="targetPoint" />
            <Array as="points">
              <mxPoint x="1830" y="1900" />
              <mxPoint x="1095" y="1900" />
            </Array>
          </mxGeometry>
        </mxCell>
        <mxCell id="AYAxXtA0wAFgbadVUgnU-1" value="Reference" style="rounded=0;whiteSpace=wrap;html=1;fontSize=30;" parent="1" vertex="1">
          <mxGeometry x="430" y="2110" width="150" height="40" as="geometry" />
        </mxCell>
        <mxCell id="AYAxXtA0wAFgbadVUgnU-2" value="" style="endArrow=classic;html=1;rounded=0;edgeStyle=orthogonalEdgeStyle;" parent="1" source="AYAxXtA0wAFgbadVUgnU-1" target="VMM3hplXZCtEs3FosFRx-51" edge="1">
          <mxGeometry width="50" height="50" relative="1" as="geometry">
            <mxPoint x="380" y="1690" as="sourcePoint" />
            <mxPoint x="430" y="1640" as="targetPoint" />
            <Array as="points">
              <mxPoint x="505" y="2190" />
              <mxPoint x="-640" y="2190" />
            </Array>
          </mxGeometry>
        </mxCell>
        <mxCell id="tc5tGFmVAP0MBaWBXiNO-1" value="&lt;b&gt;Physical copy cart&lt;/b&gt;" style="text;html=1;strokeColor=none;fillColor=none;align=center;verticalAlign=middle;whiteSpace=wrap;rounded=0;fontSize=30;" parent="1" vertex="1">
          <mxGeometry x="-760" y="880" width="310" height="30" as="geometry" />
        </mxCell>
        <mxCell id="tc5tGFmVAP0MBaWBXiNO-2" value="&lt;b&gt;Soft copy cartt&lt;/b&gt;" style="text;html=1;strokeColor=none;fillColor=none;align=center;verticalAlign=middle;whiteSpace=wrap;rounded=0;fontSize=30;" parent="1" vertex="1">
          <mxGeometry x="-760" y="1060" width="300" height="30" as="geometry" />
        </mxCell>
        <mxCell id="tc5tGFmVAP0MBaWBXiNO-3" value="&lt;b style=&quot;font-size: 30px;&quot;&gt;&lt;u style=&quot;font-size: 30px;&quot;&gt;Customer ID&lt;/u&gt;&lt;/b&gt;" style="rounded=0;whiteSpace=wrap;html=1;fontSize=30;" parent="1" vertex="1">
          <mxGeometry x="-760" y="940" width="200" height="40" as="geometry" />
        </mxCell>
        <mxCell id="tc5tGFmVAP0MBaWBXiNO-4" value="&lt;b style=&quot;font-size: 30px;&quot;&gt;&lt;u style=&quot;font-size: 30px;&quot;&gt;Hard copy ID&lt;/u&gt;&lt;/b&gt;" style="rounded=0;whiteSpace=wrap;html=1;fontSize=30;" parent="1" vertex="1">
          <mxGeometry x="-560" y="940" width="200" height="40" as="geometry" />
        </mxCell>
        <mxCell id="tc5tGFmVAP0MBaWBXiNO-6" value="&lt;b style=&quot;font-size: 30px;&quot;&gt;&lt;u style=&quot;font-size: 30px;&quot;&gt;Customer ID&lt;/u&gt;&lt;/b&gt;" style="rounded=0;whiteSpace=wrap;html=1;fontSize=30;" parent="1" vertex="1">
          <mxGeometry x="-760" y="1100" width="200" height="40" as="geometry" />
        </mxCell>
        <mxCell id="tc5tGFmVAP0MBaWBXiNO-7" value="&lt;b style=&quot;font-size: 30px;&quot;&gt;&lt;u style=&quot;font-size: 30px;&quot;&gt;Soft copy ID&lt;/u&gt;&lt;/b&gt;" style="rounded=0;whiteSpace=wrap;html=1;fontSize=30;" parent="1" vertex="1">
          <mxGeometry x="-560" y="1100" width="200" height="40" as="geometry" />
        </mxCell>
        <mxCell id="tc5tGFmVAP0MBaWBXiNO-8" value="Amount" style="rounded=0;whiteSpace=wrap;html=1;fontSize=30;" parent="1" vertex="1">
          <mxGeometry x="-360" y="940" width="170" height="40" as="geometry" />
        </mxCell>
        <mxCell id="yfLwraBvegtS3nG-4Tek-2" value="" style="endArrow=classic;html=1;rounded=0;edgeStyle=orthogonalEdgeStyle;" parent="1" source="tc5tGFmVAP0MBaWBXiNO-6" target="VMM3hplXZCtEs3FosFRx-51" edge="1">
          <mxGeometry width="50" height="50" relative="1" as="geometry">
            <mxPoint x="30" y="1130" as="sourcePoint" />
            <mxPoint x="80" y="1080" as="targetPoint" />
            <Array as="points">
              <mxPoint x="-1060" y="1120" />
              <mxPoint x="-1060" y="2120" />
            </Array>
          </mxGeometry>
        </mxCell>
        <mxCell id="yfLwraBvegtS3nG-4Tek-3" value="" style="endArrow=classic;html=1;rounded=0;edgeStyle=orthogonalEdgeStyle;" parent="1" source="tc5tGFmVAP0MBaWBXiNO-3" target="VMM3hplXZCtEs3FosFRx-51" edge="1">
          <mxGeometry width="50" height="50" relative="1" as="geometry">
            <mxPoint x="-750" y="1130" as="sourcePoint" />
            <mxPoint x="-760" y="2140" as="targetPoint" />
            <Array as="points">
              <mxPoint x="-1210" y="960" />
              <mxPoint x="-1210" y="2140" />
            </Array>
          </mxGeometry>
        </mxCell>
        <mxCell id="yfLwraBvegtS3nG-4Tek-4" value="" style="endArrow=classic;html=1;rounded=0;edgeStyle=orthogonalEdgeStyle;" parent="1" source="tc5tGFmVAP0MBaWBXiNO-4" target="VMM3hplXZCtEs3FosFRx-15" edge="1">
          <mxGeometry width="50" height="50" relative="1" as="geometry">
            <mxPoint x="-90" y="880" as="sourcePoint" />
            <mxPoint x="-40" y="830" as="targetPoint" />
            <Array as="points">
              <mxPoint x="-460" y="780" />
              <mxPoint x="310" y="780" />
            </Array>
          </mxGeometry>
        </mxCell>
        <mxCell id="yfLwraBvegtS3nG-4Tek-5" value="" style="endArrow=classic;html=1;rounded=0;edgeStyle=orthogonalEdgeStyle;" parent="1" source="tc5tGFmVAP0MBaWBXiNO-7" target="VMM3hplXZCtEs3FosFRx-17" edge="1">
          <mxGeometry width="50" height="50" relative="1" as="geometry">
            <mxPoint x="-90" y="880" as="sourcePoint" />
            <mxPoint x="-40" y="830" as="targetPoint" />
            <Array as="points">
              <mxPoint x="320" y="1120" />
            </Array>
          </mxGeometry>
        </mxCell>
        <mxCell id="ee-Z-TX6bbhb5V0-CxsW-1" value="Status" style="rounded=0;whiteSpace=wrap;html=1;fontSize=30;" parent="1" vertex="1">
          <mxGeometry x="1590" y="1260" width="110" height="40" as="geometry" />
        </mxCell>
        <mxCell id="ee-Z-TX6bbhb5V0-CxsW-2" value="Status" style="rounded=0;whiteSpace=wrap;html=1;fontSize=30;" parent="1" vertex="1">
          <mxGeometry x="580" y="2110" width="110" height="40" as="geometry" />
        </mxCell>
        <mxCell id="LvBaU3j1kHjbbvPPMhrg-1" value="Image" style="rounded=0;whiteSpace=wrap;html=1;fontSize=30;" parent="1" vertex="1">
          <mxGeometry x="1090" y="270" width="150" height="40" as="geometry" />
        </mxCell>
        <mxCell id="hJnd7YP0cYogDKuJimAA-1" value="Average star" style="rounded=0;whiteSpace=wrap;html=1;fontSize=30;" parent="1" vertex="1">
          <mxGeometry x="1239.5" y="270" width="190.5" height="40" as="geometry" />
        </mxCell>
        <mxCell id="O9PFrgkMO9K7nSlH_nbj-1" value="Point" style="rounded=0;whiteSpace=wrap;html=1;fontSize=30;" parent="1" vertex="1">
          <mxGeometry x="1131" y="1959" width="110" height="40" as="geometry" />
        </mxCell>
        <mxCell id="O9PFrgkMO9K7nSlH_nbj-2" value="Discount" style="rounded=0;whiteSpace=wrap;html=1;fontSize=30;" parent="1" vertex="1">
          <mxGeometry x="1241" y="1959" width="129" height="40" as="geometry" />
        </mxCell>
        <mxCell id="KPBO9eSQbkvuNNrhd4tc-2" value="" style="endArrow=classic;html=1;rounded=0;edgeStyle=orthogonalEdgeStyle;" parent="1" source="VMM3hplXZCtEs3FosFRx-115" target="VMM3hplXZCtEs3FosFRx-107" edge="1">
          <mxGeometry width="50" height="50" relative="1" as="geometry">
            <mxPoint x="1080" y="1860" as="sourcePoint" />
            <mxPoint x="1130" y="1810" as="targetPoint" />
            <Array as="points">
              <mxPoint x="950" y="2120" />
              <mxPoint x="950" y="1710" />
            </Array>
          </mxGeometry>
        </mxCell>
      </root>
    </mxGraphModel>
  </diagram>
</mxfile>
